ISO-10303-21;
HEADER;
FILE_DESCRIPTION(('ViewDefinition[CoordinationView_V2.0, QuantityTakeOffAddOnView]','ExchangeRequirement[Structural, SurfaceGeometry]'),'2;1');
FILE_NAME('ScullinModel.ifc','2025-06-27T14:02:42',('DESKTOP-A1BNBCL\\GERRY'),('Structural Designer'),'IFC Database version:Work','Tekla structures 2016, IFC Export Version: 4.0.0.0 Mar 10 2016','');
FILE_SCHEMA(('IFC2X3'));
ENDSEC;

DATA;
#1= IFCPERSON('DESKTOP-A1BNBCL\\GERRY','Undefined',$,$,$,$,$,$);
#2= IFCORGANIZATION($,'Trimble Solutions Corporation',$,$,$);
#3= IFCPERSONANDORGANIZATION(#1,#2,$);
#4= IFCAPPLICATION(#2,'2016','Tekla Structures','Multi material modeling');
#5= IFCOWNERHISTORY(#3,#4,$,.NOCHANGE.,$,$,$,1750996962);
#6= IFCCARTESIANPOINT((0.,0.,0.));
#7= IFCDIRECTION((1.,0.,0.));
#8= IFCDIRECTION((0.,1.,0.));
#9= IFCDIRECTION((0.,0.,1.));
#10= IFCAXIS2PLACEMENT3D(#6,#9,#7);
#11= IFCGEOMETRICREPRESENTATIONCONTEXT($,'Model',3,1.E-005,#10,$);
#12= IFCGEOMETRICREPRESENTATIONSUBCONTEXT('Body','Model',*,*,*,*,#11,$,.MODEL_VIEW.,$);
#13= IFCGEOMETRICREPRESENTATIONSUBCONTEXT('Axis','Model',*,*,*,*,#11,$,.GRAPH_VIEW.,$);
#14= IFCGEOMETRICREPRESENTATIONSUBCONTEXT('FootPrint','Model',*,*,*,*,#11,$,.MODEL_VIEW.,$);
#15= IFCSIUNIT(*,.LENGTHUNIT.,.MILLI.,.METRE.);
#16= IFCSIUNIT(*,.AREAUNIT.,$,.SQUARE_METRE.);
#17= IFCSIUNIT(*,.VOLUMEUNIT.,$,.CUBIC_METRE.);
#18= IFCSIUNIT(*,.MASSUNIT.,.KILO.,.GRAM.);
#19= IFCSIUNIT(*,.TIMEUNIT.,$,.SECOND.);
#20= IFCSIUNIT(*,.PLANEANGLEUNIT.,$,.RADIAN.);
#21= IFCSIUNIT(*,.SOLIDANGLEUNIT.,$,.STERADIAN.);
#22= IFCSIUNIT(*,.THERMODYNAMICTEMPERATUREUNIT.,$,.DEGREE_CELSIUS.);
#23= IFCSIUNIT(*,.LUMINOUSINTENSITYUNIT.,$,.LUMEN.);
#24= IFCUNITASSIGNMENT((#15,#16,#17,#18,#19,#20,#21,#22,#23));
#25= IFCPROJECT('19o0tJJAP6ivQ0YpsrqjZi',#5,'Undefined',$,$,$,$,(#11),#24);
#26= IFCLOCALPLACEMENT($,#10);
#27= IFCSITE('2qf8bjy6LC7Aed9m7AQbGY',#5,'Undefined',$,$,#26,$,$,.ELEMENT.,$,$,0.,$,$);
#28= IFCPOSTALADDRESS($,$,$,$,('33 Allison Street'),$,$,$,$,$);
#29= IFCLOCALPLACEMENT(#26,#10);
#30= IFCBUILDING('0TTCqU0TTFMwf6nCsVl5Oh',#5,'Undefined',$,$,#29,$,$,.ELEMENT.,$,$,#28);
#31= IFCLOCALPLACEMENT(#29,#10);
#32= IFCBUILDINGSTOREY('0ZjKlK0WL7nQmHtAf1O_Lo',#5,'Undefined',$,$,#31,$,$,.ELEMENT.,0.);
#33= IFCCARTESIANPOINT((-1400.59762001912,12002.132049798,2822.65064587285));
#34= IFCDIRECTION((-0.00519669600153157,0.0185395630054643,-0.99981462229467));
#35= IFCDIRECTION((0.269850452901718,-0.962709723649372,-0.0192541179929875));
#36= IFCAXIS2PLACEMENT3D(#33,#34,#35);
#37= IFCLOCALPLACEMENT(#31,#36);
#38= IFCCOLOURRGB('Dark Blue',0.,0.301960784313725,0.898039215686275);
#39= IFCSURFACESTYLERENDERING(#38,0.,$,$,$,$,IFCNORMALISEDRATIOMEASURE(0.00390625),IFCSPECULAREXPONENT(10.),.NOTDEFINED.);
#40= IFCSURFACESTYLE('STEEL/300PLUS',.POSITIVE.,(#39));
#41= IFCPRESENTATIONSTYLEASSIGNMENT((#40));
#42= IFCCARTESIANPOINT((4.15857357438654E-008,37.5000000000002,-115.));
#43= IFCCARTESIANPOINT((-4.15839167544618E-008,37.5000000000009,115.));
#44= IFCCARTESIANPOINT((6855.64751385422,37.5000000000005,115.));
#45= IFCCARTESIANPOINT((6855.64751393739,37.5000000000005,-115.));
#46= IFCPOLYLOOP((#42,#43,#44,#45));
#47= IFCFACEOUTERBOUND(#46,.T.);
#48= IFCFACE((#47));
#49= IFCCARTESIANPOINT((-4.15802787756547E-008,-37.4999999999991,115.));
#50= IFCCARTESIANPOINT((6855.64751385422,-37.4999999999995,115.));
#51= IFCPOLYLOOP((#43,#49,#50,#44));
#52= IFCFACEOUTERBOUND(#51,.T.);
#53= IFCFACE((#52));
#54= IFCCARTESIANPOINT((-3.72438080376014E-008,-37.4999999999995,103.));
#55= IFCCARTESIANPOINT((6855.64751385856,-37.4999999999995,103.));
#56= IFCPOLYLOOP((#49,#54,#55,#50));
#57= IFCFACEOUTERBOUND(#56,.T.);
#58= IFCFACE((#57));
#59= IFCCARTESIANPOINT((-3.72438080376014E-008,31.0000000000002,103.));
#60= IFCCARTESIANPOINT((6855.64751385856,31.0000000000005,103.));
#61= IFCPOLYLOOP((#54,#59,#60,#55));
#62= IFCFACEOUTERBOUND(#61,.T.);
#63= IFCFACE((#62));
#64= IFCCARTESIANPOINT((3.7245627027005E-008,31.0000000000005,-103.));
#65= IFCCARTESIANPOINT((6855.64751393305,31.0000000000005,-103.));
#66= IFCPOLYLOOP((#59,#64,#65,#60));
#67= IFCFACEOUTERBOUND(#66,.T.);
#68= IFCFACE((#67));
#69= IFCCARTESIANPOINT((3.7245627027005E-008,-37.4999999999995,-103.));
#70= IFCCARTESIANPOINT((6855.64751393305,-37.4999999999993,-103.));
#71= IFCPOLYLOOP((#64,#69,#70,#65));
#72= IFCFACEOUTERBOUND(#71,.T.);
#73= IFCFACE((#72));
#74= IFCCARTESIANPOINT((4.15857357438654E-008,-37.4999999999995,-115.));
#75= IFCCARTESIANPOINT((6855.64751393739,-37.4999999999995,-115.));
#76= IFCPOLYLOOP((#69,#74,#75,#70));
#77= IFCFACEOUTERBOUND(#76,.T.);
#78= IFCFACE((#77));
#79= IFCPOLYLOOP((#74,#42,#45,#75));
#80= IFCFACEOUTERBOUND(#79,.T.);
#81= IFCFACE((#80));
#82= IFCPOLYLOOP((#50,#55,#60,#65,#70,#75,#45,#44));
#83= IFCFACEOUTERBOUND(#82,.T.);
#84= IFCFACE((#83));
#85= IFCPOLYLOOP((#74,#69,#64,#59,#54,#49,#43,#42));
#86= IFCFACEOUTERBOUND(#85,.T.);
#87= IFCFACE((#86));
#88= IFCCLOSEDSHELL((#48,#53,#58,#63,#68,#73,#78,#81,#84,#87));
#89= IFCFACETEDBREP(#88);
#90= IFCSTYLEDITEM(#89,(#41),$);
#91= IFCSHAPEREPRESENTATION(#12,'Body','Brep',(#89));
#92= IFCPRODUCTDEFINITIONSHAPE($,$,(#91));
#93= IFCBEAM('1eNWFy0000jp4tDJ0vEJKu',#5,'SB1','PFC230*75','PFC230*75',#37,#92,'ID685e03fc-0000-00b7-3137-353039393538');
#94= IFCBEAMTYPE('3CROUQV7f9nhftExetflSG',#5,'PFC230*75',$,$,$,$,$,$,.NOTDEFINED.);
#95= IFCPROPERTYSINGLEVALUE('Bottom elevation',$,IFCLABEL(' +2.576'),$);
#96= IFCPROPERTYSINGLEVALUE('Top elevation',$,IFCLABEL(' +2.938'),$);
#97= IFCPROPERTYSINGLEVALUE('Initial GUID',$,$,$);
#98= IFCPROPERTYSINGLEVALUE('Preliminary mark',$,IFCLABEL(''),$);
#99= IFCPROPERTYSINGLEVALUE('Phase',$,IFCINTEGER(1),$);
#100= IFCPROPERTYSINGLEVALUE('Class',$,IFCLABEL('4'),$);
#101= IFCPROPERTYSET('35utHg1z90EuifFjgqYfB1',#5,'Tekla Common','Common Properties to Shared building elements',(#95,#96,#97,#98,#99,#100));
#102= IFCPROPERTYSINGLEVALUE('Weight',$,IFCMASSMEASURE(172.2),$);
#103= IFCPROPERTYSINGLEVALUE('Volume',$,IFCVOLUMEMEASURE(0.),$);
#104= IFCPROPERTYSINGLEVALUE('Gross footprint area',$,IFCAREAMEASURE(0.),$);
#105= IFCPROPERTYSINGLEVALUE('Area per tons',$,IFCAREAMEASURE(29.5),$);
#106= IFCPROPERTYSINGLEVALUE('Net surface area',$,IFCAREAMEASURE(5.1),$);
#107= IFCPROPERTYSINGLEVALUE('Height',$,IFCLENGTHMEASURE(230.),$);
#108= IFCPROPERTYSINGLEVALUE('Width',$,IFCLENGTHMEASURE(75.),$);
#109= IFCPROPERTYSINGLEVALUE('Length',$,IFCLENGTHMEASURE(6855.6),$);
#110= IFCPROPERTYSET('0RfBF_BVrDffcj8BwdYvwS',#5,'Tekla Quantity','Quantity Properties to Shared building elements',(#102,#103,#104,#105,#106,#107,#108,#109));
#111= IFCPROPERTYSINGLEVALUE('LoadBearing',$,IFCBOOLEAN(.T.),$);
#112= IFCPROPERTYSINGLEVALUE('Reference',$,IFCIDENTIFIER('M/0(?)'),$);
#113= IFCPROPERTYSET('3o6bRGLObAxApF$40wk7pS',#5,'Pset_BeamCommon','Common Properties to beam elements',(#111,#112));
#114= IFCQUANTITYLENGTH('Length',$,$,6855.64751389874);
#115= IFCQUANTITYAREA('OuterSurfaceArea',$,$,5.07317922541372);
#116= IFCQUANTITYVOLUME('NetVolume',$,$,0.0215198775461382);
#117= IFCQUANTITYWEIGHT('NetWeight',$,$,168.931038737185);
#118= IFCELEMENTQUANTITY('3yy3S33oz6GALB696384ha',#5,'BaseQuantities',$,$,(#114,#115,#116,#117));
#119= IFCMATERIAL('STEEL/300PLUS');
#120= IFCCARTESIANPOINT((4460.,11995.,100.));
#121= IFCDIRECTION((0.,-1.,0.));
#122= IFCAXIS2PLACEMENT3D(#120,#7,#121);
#123= IFCLOCALPLACEMENT(#31,#122);
#124= IFCCOLOURRGB('Light Gray',0.6,0.6,0.6);
#125= IFCSURFACESTYLERENDERING(#124,0.,$,$,$,$,IFCNORMALISEDRATIOMEASURE(0.00390625),IFCSPECULAREXPONENT(10.),.NOTDEFINED.);
#126= IFCSURFACESTYLE('CONCRETE/N40',.POSITIVE.,(#125));
#127= IFCPRESENTATIONSTYLEASSIGNMENT((#126));
#128= IFCCARTESIANPOINT((0.,-100.,0.));
#129= IFCCARTESIANPOINT((0.,-100.,2270.));
#130= IFCCARTESIANPOINT((0.,100.,2270.));
#131= IFCCARTESIANPOINT((0.,100.,0.));
#132= IFCPOLYLOOP((#128,#129,#130,#131));
#133= IFCFACEOUTERBOUND(#132,.T.);
#134= IFCFACE((#133));
#135= IFCCARTESIANPOINT((0.,-100.,4540.));
#136= IFCCARTESIANPOINT((0.,100.,4540.));
#137= IFCPOLYLOOP((#129,#135,#136,#130));
#138= IFCFACEOUTERBOUND(#137,.T.);
#139= IFCFACE((#138));
#140= IFCCARTESIANPOINT((6810.,-100.,4540.));
#141= IFCCARTESIANPOINT((6810.,100.,4540.));
#142= IFCPOLYLOOP((#135,#140,#141,#136));
#143= IFCFACEOUTERBOUND(#142,.T.);
#144= IFCFACE((#143));
#145= IFCCARTESIANPOINT((6810.,-100.,9.09494701772928E-013));
#146= IFCCARTESIANPOINT((6810.,100.,9.09494701772928E-013));
#147= IFCPOLYLOOP((#140,#145,#146,#141));
#148= IFCFACEOUTERBOUND(#147,.T.);
#149= IFCFACE((#148));
#150= IFCPOLYLOOP((#145,#128,#131,#146));
#151= IFCFACEOUTERBOUND(#150,.T.);
#152= IFCFACE((#151));
#153= IFCPOLYLOOP((#136,#141,#146,#131,#130));
#154= IFCFACEOUTERBOUND(#153,.T.);
#155= IFCFACE((#154));
#156= IFCPOLYLOOP((#145,#140,#135,#129,#128));
#157= IFCFACEOUTERBOUND(#156,.T.);
#158= IFCFACE((#157));
#159= IFCCLOSEDSHELL((#134,#139,#144,#149,#152,#155,#158));
#160= IFCFACETEDBREP(#159);
#161= IFCSTYLEDITEM(#160,(#127),$);
#162= IFCSHAPEREPRESENTATION(#12,'Body','Brep',(#160));
#163= IFCPRODUCTDEFINITIONSHAPE($,$,(#162));
#164= IFCSLAB('1eNWFy0000gp4tDJ0vEJCt',#5,'SLAB','200*4540','200*4540',#123,#163,'ID685e03fc-0000-00ab-3137-353039393337',.FLOOR.);
#165= IFCSLABTYPE('2rp5H8jBzEDxHTkO_7xN20',#5,'200*4540',$,$,$,$,$,$,.NOTDEFINED.);
#166= IFCPROPERTYSINGLEVALUE('Bottom elevation',$,IFCLABEL(' +0.000'),$);
#167= IFCPROPERTYSINGLEVALUE('Top elevation',$,IFCLABEL(' +0.200'),$);
#168= IFCPROPERTYSINGLEVALUE('Class',$,IFCLABEL('1'),$);
#169= IFCPROPERTYSET('3t8b2zTpn3Mv432D1j4jEI',#5,'Tekla Common','Common Properties to Shared building elements',(#166,#167,#97,#98,#99,#168));
#170= IFCPROPERTYSINGLEVALUE('Weight',$,IFCMASSMEASURE(15458.7),$);
#171= IFCPROPERTYSINGLEVALUE('Volume',$,IFCVOLUMEMEASURE(6.2),$);
#172= IFCPROPERTYSINGLEVALUE('Gross footprint area',$,IFCAREAMEASURE(30.9),$);
#173= IFCPROPERTYSINGLEVALUE('Area per tons',$,IFCAREAMEASURE(4.3),$);
#174= IFCPROPERTYSINGLEVALUE('Net surface area',$,IFCAREAMEASURE(66.4),$);
#175= IFCPROPERTYSINGLEVALUE('Height',$,IFCLENGTHMEASURE(4540.),$);
#176= IFCPROPERTYSINGLEVALUE('Width',$,IFCLENGTHMEASURE(200.),$);
#177= IFCPROPERTYSINGLEVALUE('Length',$,IFCLENGTHMEASURE(6810.),$);
#178= IFCPROPERTYSET('197ForitL2g9lTUsP8208x',#5,'Tekla Quantity','Quantity Properties to Shared building elements',(#170,#171,#172,#173,#174,#175,#176,#177));
#179= IFCPROPERTYSINGLEVALUE('Reference',$,IFCIDENTIFIER('\X2\6DF751DD571F005F0053002D0031002F00300028003F0029\X0\'),$);
#180= IFCPROPERTYSET('0jtZYkEv15B9YiK1ACtJ_P',#5,'Pset_SlabCommon','Common Properties to slab elements',(#111,#179));
#181= IFCQUANTITYLENGTH('Width',$,$,200.);
#182= IFCQUANTITYVOLUME('NetVolume',$,$,6.18348);
#183= IFCQUANTITYAREA('NetArea',$,$,30.9174);
#184= IFCQUANTITYWEIGHT('NetWeight',$,$,15458.7);
#185= IFCELEMENTQUANTITY('167PDBjFf2YwpZbO$_L$6H',#5,'BaseQuantities',$,$,(#181,#182,#183,#184));
#186= IFCMATERIAL('CONCRETE/N40');
#187= IFCCARTESIANPOINT((4620.,11995.,250.));
#188= IFCAXIS2PLACEMENT3D(#187,#7,#121);
#189= IFCLOCALPLACEMENT(#31,#188);
#190= IFCCARTESIANPOINT((0.,-50.,0.));
#191= IFCCARTESIANPOINT((0.,-50.,2115.));
#192= IFCCARTESIANPOINT((0.,50.,2115.));
#193= IFCCARTESIANPOINT((0.,50.,0.));
#194= IFCPOLYLOOP((#190,#191,#192,#193));
#195= IFCFACEOUTERBOUND(#194,.T.);
#196= IFCFACE((#195));
#197= IFCCARTESIANPOINT((0.,-50.,4230.));
#198= IFCCARTESIANPOINT((0.,50.,4230.));
#199= IFCPOLYLOOP((#191,#197,#198,#192));
#200= IFCFACEOUTERBOUND(#199,.T.);
#201= IFCFACE((#200));
#202= IFCCARTESIANPOINT((6650.,-50.,4230.));
#203= IFCCARTESIANPOINT((6650.,50.,4230.));
#204= IFCPOLYLOOP((#197,#202,#203,#198));
#205= IFCFACEOUTERBOUND(#204,.T.);
#206= IFCFACE((#205));
#207= IFCCARTESIANPOINT((6650.,-50.,0.));
#208= IFCCARTESIANPOINT((6650.,50.,0.));
#209= IFCPOLYLOOP((#202,#207,#208,#203));
#210= IFCFACEOUTERBOUND(#209,.T.);
#211= IFCFACE((#210));
#212= IFCPOLYLOOP((#207,#190,#193,#208));
#213= IFCFACEOUTERBOUND(#212,.T.);
#214= IFCFACE((#213));
#215= IFCPOLYLOOP((#198,#203,#208,#193,#192));
#216= IFCFACEOUTERBOUND(#215,.T.);
#217= IFCFACE((#216));
#218= IFCPOLYLOOP((#207,#202,#197,#191,#190));
#219= IFCFACEOUTERBOUND(#218,.T.);
#220= IFCFACE((#219));
#221= IFCCLOSEDSHELL((#196,#201,#206,#211,#214,#217,#220));
#222= IFCFACETEDBREP(#221);
#223= IFCSTYLEDITEM(#222,(#127),$);
#224= IFCSHAPEREPRESENTATION(#12,'Body','Brep',(#222));
#225= IFCPRODUCTDEFINITIONSHAPE($,$,(#224));
#226= IFCSLAB('1eNWFy0000fp4tDJ0vEJCq',#5,'SLAB','100*4230','100*4230',#189,#225,'ID685e03fc-0000-00a7-3137-353039393334',.FLOOR.);
#227= IFCSLABTYPE('2Qc1pwEvLAvg9l3$lQU_$q',#5,'100*4230',$,$,$,$,$,$,.NOTDEFINED.);
#228= IFCPROPERTYSINGLEVALUE('Bottom elevation',$,IFCLABEL(' +0.200'),$);
#229= IFCPROPERTYSINGLEVALUE('Top elevation',$,IFCLABEL(' +0.300'),$);
#230= IFCPROPERTYSET('0lu0c1vw9FP9n8f4YjMUXE',#5,'Tekla Common','Common Properties to Shared building elements',(#228,#229,#97,#98,#99,#168));
#231= IFCPROPERTYSINGLEVALUE('Weight',$,IFCMASSMEASURE(7032.4),$);
#232= IFCPROPERTYSINGLEVALUE('Volume',$,IFCVOLUMEMEASURE(2.8),$);
#233= IFCPROPERTYSINGLEVALUE('Gross footprint area',$,IFCAREAMEASURE(28.1),$);
#234= IFCPROPERTYSINGLEVALUE('Area per tons',$,IFCAREAMEASURE(8.3),$);
#235= IFCPROPERTYSINGLEVALUE('Net surface area',$,IFCAREAMEASURE(58.4),$);
#236= IFCPROPERTYSINGLEVALUE('Height',$,IFCLENGTHMEASURE(4230.),$);
#237= IFCPROPERTYSINGLEVALUE('Width',$,IFCLENGTHMEASURE(100.),$);
#238= IFCPROPERTYSINGLEVALUE('Length',$,IFCLENGTHMEASURE(6650.),$);
#239= IFCPROPERTYSET('0naFkXsoX7aRekc0NNBklH',#5,'Tekla Quantity','Quantity Properties to Shared building elements',(#231,#232,#233,#234,#235,#236,#237,#238));
#240= IFCQUANTITYLENGTH('Width',$,$,100.);
#241= IFCQUANTITYVOLUME('NetVolume',$,$,2.81295);
#242= IFCQUANTITYAREA('NetArea',$,$,28.1295);
#243= IFCQUANTITYWEIGHT('NetWeight',$,$,7032.375);
#244= IFCELEMENTQUANTITY('0DJIj2CKjEbQQi4ShJkgDg',#5,'BaseQuantities',$,$,(#240,#241,#242,#243));
#245= IFCCARTESIANPOINT((-3000.,0.,-1000.));
#246= IFCAXIS2PLACEMENT3D(#245,#8,#7);
#247= IFCLOCALPLACEMENT(#31,#246);
#248= IFCCARTESIANPOINT((0.,-1000.,0.));
#249= IFCCARTESIANPOINT((0.,-1000.,14000.));
#250= IFCCARTESIANPOINT((0.,1000.,14000.));
#251= IFCCARTESIANPOINT((0.,1000.,0.));
#252= IFCPOLYLOOP((#248,#249,#250,#251));
#253= IFCFACEOUTERBOUND(#252,.T.);
#254= IFCFACE((#253));
#255= IFCCARTESIANPOINT((15000.,-1000.,14000.));
#256= IFCCARTESIANPOINT((15000.,1000.,14000.));
#257= IFCPOLYLOOP((#249,#255,#256,#250));
#258= IFCFACEOUTERBOUND(#257,.T.);
#259= IFCFACE((#258));
#260= IFCCARTESIANPOINT((15000.,-1000.,0.));
#261= IFCCARTESIANPOINT((15000.,1000.,0.));
#262= IFCPOLYLOOP((#255,#260,#261,#256));
#263= IFCFACEOUTERBOUND(#262,.T.);
#264= IFCFACE((#263));
#265= IFCPOLYLOOP((#260,#248,#251,#261));
#266= IFCFACEOUTERBOUND(#265,.T.);
#267= IFCFACE((#266));
#268= IFCPOLYLOOP((#256,#261,#251,#250));
#269= IFCFACEOUTERBOUND(#268,.T.);
#270= IFCFACE((#269));
#271= IFCPOLYLOOP((#260,#255,#249,#248));
#272= IFCFACEOUTERBOUND(#271,.T.);
#273= IFCFACE((#272));
#274= IFCCLOSEDSHELL((#254,#259,#264,#267,#270,#273));
#275= IFCFACETEDBREP(#274);
#276= IFCSTYLEDITEM(#275,(#127),$);
#277= IFCSHAPEREPRESENTATION(#12,'Body','Brep',(#275));
#278= IFCPRODUCTDEFINITIONSHAPE($,$,(#277));
#279= IFCSLAB('1eNWFy0000ZJ4tDJ0vEJ4u',#5,'Ground','2000*14000','2000*14000',#247,#278,'ID685e03fc-0000-008d-3137-353039393138',.FLOOR.);
#280= IFCSLABTYPE('0hbNO9tlDFnwVvB2zIqe8s',#5,'2000*14000',$,$,$,$,$,$,.NOTDEFINED.);
#281= IFCPROPERTYSINGLEVALUE('Bottom elevation',$,IFCLABEL(' -2.000'),$);
#282= IFCPROPERTYSINGLEVALUE('Top elevation',$,IFCLABEL(' +0.000'),$);
#283= IFCPROPERTYSET('2bN_qVGWrFIfzjml6S8lqz',#5,'Tekla Common','Common Properties to Shared building elements',(#281,#282,#97,#98,#99,#168));
#284= IFCPROPERTYSINGLEVALUE('Weight',$,IFCMASSMEASURE(1050000.),$);
#285= IFCPROPERTYSINGLEVALUE('Volume',$,IFCVOLUMEMEASURE(420.),$);
#286= IFCPROPERTYSINGLEVALUE('Gross footprint area',$,IFCAREAMEASURE(210.),$);
#287= IFCPROPERTYSINGLEVALUE('Area per tons',$,IFCAREAMEASURE(0.5),$);
#288= IFCPROPERTYSINGLEVALUE('Net surface area',$,IFCAREAMEASURE(536.),$);
#289= IFCPROPERTYSINGLEVALUE('Height',$,IFCLENGTHMEASURE(14000.),$);
#290= IFCPROPERTYSINGLEVALUE('Width',$,IFCLENGTHMEASURE(2000.),$);
#291= IFCPROPERTYSINGLEVALUE('Length',$,IFCLENGTHMEASURE(15000.),$);
#292= IFCPROPERTYSET('2ocw15J5193g3GpQzYvTKW',#5,'Tekla Quantity','Quantity Properties to Shared building elements',(#284,#285,#286,#287,#288,#289,#290,#291));
#293= IFCQUANTITYLENGTH('Width',$,$,2000.);
#294= IFCQUANTITYVOLUME('NetVolume',$,$,420.);
#295= IFCQUANTITYAREA('NetArea',$,$,210.);
#296= IFCQUANTITYWEIGHT('NetWeight',$,$,1050000.);
#297= IFCELEMENTQUANTITY('1gopLjsCr5U8PnjzR5DvVv',#5,'BaseQuantities',$,$,(#293,#294,#295,#296));
#298= IFCCARTESIANPOINT((-1446.,11955.0358064216,2785.83453055609));
#299= IFCAXIS2PLACEMENT3D(#298,#9,#7);
#300= IFCLOCALPLACEMENT(#31,#299);
#301= IFCCARTESIANPOINT((0.,45.,-150.));
#302= IFCCARTESIANPOINT((0.,45.,150.));
#303= IFCCARTESIANPOINT((11046.,45.,150.));
#304= IFCCARTESIANPOINT((11046.,45.,-150.));
#305= IFCPOLYLOOP((#301,#302,#303,#304));
#306= IFCFACEOUTERBOUND(#305,.T.);
#307= IFCFACE((#306));
#308= IFCCARTESIANPOINT((0.,-45.,150.));
#309= IFCCARTESIANPOINT((11046.,-45.,150.));
#310= IFCPOLYLOOP((#302,#308,#309,#303));
#311= IFCFACEOUTERBOUND(#310,.T.);
#312= IFCFACE((#311));
#313= IFCCARTESIANPOINT((0.,-45.,134.));
#314= IFCCARTESIANPOINT((11046.,-45.,134.));
#315= IFCPOLYLOOP((#308,#313,#314,#309));
#316= IFCFACEOUTERBOUND(#315,.T.);
#317= IFCFACE((#316));
#318= IFCCARTESIANPOINT((0.,37.,134.));
#319= IFCCARTESIANPOINT((11046.,37.,134.));
#320= IFCPOLYLOOP((#313,#318,#319,#314));
#321= IFCFACEOUTERBOUND(#320,.T.);
#322= IFCFACE((#321));
#323= IFCCARTESIANPOINT((0.,37.,-134.));
#324= IFCCARTESIANPOINT((11046.,37.,-134.));
#325= IFCPOLYLOOP((#318,#323,#324,#319));
#326= IFCFACEOUTERBOUND(#325,.T.);
#327= IFCFACE((#326));
#328= IFCCARTESIANPOINT((0.,-45.,-134.));
#329= IFCCARTESIANPOINT((11046.,-45.,-134.));
#330= IFCPOLYLOOP((#323,#328,#329,#324));
#331= IFCFACEOUTERBOUND(#330,.T.);
#332= IFCFACE((#331));
#333= IFCCARTESIANPOINT((0.,-45.,-150.));
#334= IFCCARTESIANPOINT((11046.,-45.,-150.));
#335= IFCPOLYLOOP((#328,#333,#334,#329));
#336= IFCFACEOUTERBOUND(#335,.T.);
#337= IFCFACE((#336));
#338= IFCPOLYLOOP((#333,#301,#304,#334));
#339= IFCFACEOUTERBOUND(#338,.T.);
#340= IFCFACE((#339));
#341= IFCPOLYLOOP((#309,#314,#319,#324,#329,#334,#304,#303));
#342= IFCFACEOUTERBOUND(#341,.T.);
#343= IFCFACE((#342));
#344= IFCPOLYLOOP((#333,#328,#323,#318,#313,#308,#302,#301));
#345= IFCFACEOUTERBOUND(#344,.T.);
#346= IFCFACE((#345));
#347= IFCCLOSEDSHELL((#307,#312,#317,#322,#327,#332,#337,#340,#343,#346));
#348= IFCFACETEDBREP(#347);
#349= IFCSTYLEDITEM(#348,(#41),$);
#350= IFCSHAPEREPRESENTATION(#12,'Body','Brep',(#348));
#351= IFCPRODUCTDEFINITIONSHAPE($,$,(#350));
#352= IFCBEAM('1eNWFy0000YJ4tDJ0vEJ4u',#5,'SB2','PFC300*90','PFC300*90',#300,#351,'ID685e03fc-0000-0089-3137-353039393138');
#353= IFCBEAMTYPE('2E_MezgVTASgi6msZwK3DE',#5,'PFC300*90',$,$,$,$,$,$,.NOTDEFINED.);
#354= IFCPROPERTYSINGLEVALUE('Bottom elevation',$,IFCLABEL(' +2.636'),$);
#355= IFCPROPERTYSINGLEVALUE('Top elevation',$,IFCLABEL(' +2.936'),$);
#356= IFCPROPERTYSET('0uqWUmker82Awy633yAFts',#5,'Tekla Common','Common Properties to Shared building elements',(#354,#355,#97,#98,#99,#100));
#357= IFCPROPERTYSINGLEVALUE('Weight',$,IFCMASSMEASURE(443.1),$);
#358= IFCPROPERTYSINGLEVALUE('Volume',$,IFCVOLUMEMEASURE(0.1),$);
#359= IFCPROPERTYSINGLEVALUE('Gross footprint area',$,IFCAREAMEASURE(1.),$);
#360= IFCPROPERTYSINGLEVALUE('Area per tons',$,IFCAREAMEASURE(23.2),$);
#361= IFCPROPERTYSINGLEVALUE('Net surface area',$,IFCAREAMEASURE(10.4),$);
#362= IFCPROPERTYSINGLEVALUE('Height',$,IFCLENGTHMEASURE(300.),$);
#363= IFCPROPERTYSINGLEVALUE('Width',$,IFCLENGTHMEASURE(90.),$);
#364= IFCPROPERTYSINGLEVALUE('Length',$,IFCLENGTHMEASURE(11046.),$);
#365= IFCPROPERTYSET('0GjUbVS5r5$ugmiqmvaRiq',#5,'Tekla Quantity','Quantity Properties to Shared building elements',(#357,#358,#359,#360,#361,#362,#363,#364));
#366= IFCQUANTITYLENGTH('Length',$,$,11046.);
#367= IFCQUANTITYAREA('OuterSurfaceArea',$,$,10.2727800795312);
#368= IFCQUANTITYVOLUME('NetVolume',$,$,0.0554951039999999);
#369= IFCQUANTITYWEIGHT('NetWeight',$,$,435.636566399999);
#370= IFCELEMENTQUANTITY('3OMeX0UIPDg86d63GzNmRs',#5,'BaseQuantities',$,$,(#366,#367,#368,#369));
#371= IFCCARTESIANPOINT((297.749540106093,5438.52357410337,2692.3726724532));
#372= IFCDIRECTION((7.41600000185571E-005,0.,0.999999997250147));
#373= IFCDIRECTION((0.999999997249052,1.48000000040008E-006,-7.41600000184541E-005));
#374= IFCAXIS2PLACEMENT3D(#371,#372,#373);
#375= IFCLOCALPLACEMENT(#31,#374);
#376= IFCCARTESIANPOINT((8702.24195540118,37.5000000000009,115.));
#377= IFCCARTESIANPOINT((8702.24195540118,37.5000000000009,-115.));
#378= IFCPOLYLOOP((#42,#43,#376,#377));
#379= IFCFACEOUTERBOUND(#378,.T.);
#380= IFCFACE((#379));
#381= IFCCARTESIANPOINT((8702.24195540118,-37.4999999999991,115.));
#382= IFCPOLYLOOP((#43,#49,#381,#376));
#383= IFCFACEOUTERBOUND(#382,.T.);
#384= IFCFACE((#383));
#385= IFCCARTESIANPOINT((8702.24195540118,-37.4999999999991,103.));
#386= IFCPOLYLOOP((#49,#54,#385,#381));
#387= IFCFACEOUTERBOUND(#386,.T.);
#388= IFCFACE((#387));
#389= IFCCARTESIANPOINT((8702.24195540118,31.0000000000009,103.));
#390= IFCPOLYLOOP((#54,#59,#389,#385));
#391= IFCFACEOUTERBOUND(#390,.T.);
#392= IFCFACE((#391));
#393= IFCCARTESIANPOINT((8702.24195540118,31.0000000000009,-103.));
#394= IFCPOLYLOOP((#59,#64,#393,#389));
#395= IFCFACEOUTERBOUND(#394,.T.);
#396= IFCFACE((#395));
#397= IFCCARTESIANPOINT((8702.24195540118,-37.4999999999991,-103.));
#398= IFCPOLYLOOP((#64,#69,#397,#393));
#399= IFCFACEOUTERBOUND(#398,.T.);
#400= IFCFACE((#399));
#401= IFCCARTESIANPOINT((8702.24195540118,-37.4999999999991,-115.));
#402= IFCPOLYLOOP((#69,#74,#401,#397));
#403= IFCFACEOUTERBOUND(#402,.T.);
#404= IFCFACE((#403));
#405= IFCPOLYLOOP((#74,#42,#377,#401));
#406= IFCFACEOUTERBOUND(#405,.T.);
#407= IFCFACE((#406));
#408= IFCPOLYLOOP((#381,#385,#389,#393,#397,#401,#377,#376));
#409= IFCFACEOUTERBOUND(#408,.T.);
#410= IFCFACE((#409));
#411= IFCCLOSEDSHELL((#380,#384,#388,#392,#396,#400,#404,#407,#410,#87));
#412= IFCFACETEDBREP(#411);
#413= IFCSTYLEDITEM(#412,(#41),$);
#414= IFCSHAPEREPRESENTATION(#12,'Body','Brep',(#412));
#415= IFCPRODUCTDEFINITIONSHAPE($,$,(#414));
#416= IFCBEAM('1eNWFy0000XJ4tDJ0vEJ4u',#5,'SB1','PFC230*75','PFC230*75',#375,#415,'ID685e03fc-0000-0085-3137-353039393138');
#417= IFCPROPERTYSINGLEVALUE('Bottom elevation',$,IFCLABEL(' +2.577'),$);
#418= IFCPROPERTYSINGLEVALUE('Top elevation',$,IFCLABEL(' +2.807'),$);
#419= IFCPROPERTYSET('1XVjXEV$b9sgZlGzOanL8j',#5,'Tekla Common','Common Properties to Shared building elements',(#417,#418,#97,#98,#99,#100));
#420= IFCPROPERTYSINGLEVALUE('Weight',$,IFCMASSMEASURE(218.6),$);
#421= IFCPROPERTYSINGLEVALUE('Net surface area',$,IFCAREAMEASURE(6.5),$);
#422= IFCPROPERTYSINGLEVALUE('Length',$,IFCLENGTHMEASURE(8702.2),$);
#423= IFCPROPERTYSET('0iekSsrEfC0RdzxhIwRuZW',#5,'Tekla Quantity','Quantity Properties to Shared building elements',(#420,#103,#104,#105,#421,#107,#108,#422));
#424= IFCQUANTITYLENGTH('Length',$,$,8702.24195540132);
#425= IFCQUANTITYAREA('OuterSurfaceArea',$,$,6.43965912966828);
#426= IFCQUANTITYVOLUME('NetVolume',$,$,0.0273163374980102);
#427= IFCQUANTITYWEIGHT('NetWeight',$,$,214.43324935938);
#428= IFCELEMENTQUANTITY('3WK8TY8kTDmhT8bE12UIJc',#5,'BaseQuantities',$,$,(#424,#425,#426,#427));
#429= IFCCARTESIANPOINT((8805.5,11955.5,300.));
#430= IFCAXIS2PLACEMENT3D(#429,#8,#9);
#431= IFCLOCALPLACEMENT(#31,#430);
#432= IFCCOLOURRGB('Light Red',0.898039215686275,0.,0.);
#433= IFCSURFACESTYLERENDERING(#432,0.,$,$,$,$,IFCNORMALISEDRATIOMEASURE(0.00390625),IFCSPECULAREXPONENT(10.),.NOTDEFINED.);
#434= IFCSURFACESTYLE('STEEL/300PLUS',.POSITIVE.,(#433));
#435= IFCPRESENTATIONSTYLEASSIGNMENT((#434));
#436= IFCCARTESIANPOINT((0.,39.5,-39.5));
#437= IFCCARTESIANPOINT((0.,-39.5,-39.5));
#438= IFCCARTESIANPOINT((2336.,-39.5,-39.5));
#439= IFCCARTESIANPOINT((2336.,39.5,-39.5));
#440= IFCPOLYLOOP((#436,#437,#438,#439));
#441= IFCFACEOUTERBOUND(#440,.T.);
#442= IFCFACE((#441));
#443= IFCCARTESIANPOINT((0.,-39.5,39.5));
#444= IFCCARTESIANPOINT((2336.,-39.5,39.5));
#445= IFCPOLYLOOP((#437,#443,#444,#438));
#446= IFCFACEOUTERBOUND(#445,.T.);
#447= IFCFACE((#446));
#448= IFCCARTESIANPOINT((0.,39.5,39.5));
#449= IFCCARTESIANPOINT((2336.,39.5,39.5));
#450= IFCPOLYLOOP((#443,#448,#449,#444));
#451= IFCFACEOUTERBOUND(#450,.T.);
#452= IFCFACE((#451));
#453= IFCPOLYLOOP((#448,#436,#439,#449));
#454= IFCFACEOUTERBOUND(#453,.T.);
#455= IFCFACE((#454));
#456= IFCCARTESIANPOINT((0.,44.5,-44.5));
#457= IFCCARTESIANPOINT((0.,44.5,44.5));
#458= IFCCARTESIANPOINT((2336.,44.5,44.5));
#459= IFCCARTESIANPOINT((2336.,44.5,-44.5));
#460= IFCPOLYLOOP((#456,#457,#458,#459));
#461= IFCFACEOUTERBOUND(#460,.T.);
#462= IFCFACE((#461));
#463= IFCCARTESIANPOINT((0.,-44.5,44.5));
#464= IFCCARTESIANPOINT((2336.,-44.5,44.5));
#465= IFCPOLYLOOP((#457,#463,#464,#458));
#466= IFCFACEOUTERBOUND(#465,.T.);
#467= IFCFACE((#466));
#468= IFCCARTESIANPOINT((0.,-44.5,-44.5));
#469= IFCCARTESIANPOINT((2336.,-44.5,-44.5));
#470= IFCPOLYLOOP((#463,#468,#469,#464));
#471= IFCFACEOUTERBOUND(#470,.T.);
#472= IFCFACE((#471));
#473= IFCPOLYLOOP((#468,#456,#459,#469));
#474= IFCFACEOUTERBOUND(#473,.T.);
#475= IFCFACE((#474));
#476= IFCPOLYLOOP((#464,#469,#459,#458));
#477= IFCFACEOUTERBOUND(#476,.T.);
#478= IFCPOLYLOOP((#444,#449,#439,#438));
#479= IFCFACEBOUND(#478,.T.);
#480= IFCFACE((#477,#479));
#481= IFCPOLYLOOP((#468,#463,#457,#456));
#482= IFCFACEOUTERBOUND(#481,.T.);
#483= IFCPOLYLOOP((#448,#443,#437,#436));
#484= IFCFACEBOUND(#483,.T.);
#485= IFCFACE((#482,#484));
#486= IFCCLOSEDSHELL((#442,#447,#452,#455,#462,#467,#472,#475,#480,#485));
#487= IFCFACETEDBREP(#486);
#488= IFCSTYLEDITEM(#487,(#435),$);
#489= IFCSHAPEREPRESENTATION(#12,'Body','Brep',(#487));
#490= IFCPRODUCTDEFINITIONSHAPE($,$,(#489));
#491= IFCCOLUMN('1eNWFy00001Z4tDJ0vEJ4u',#5,'S7','SHS89*89*5.0','SHS89*89*5.0',#431,#490,'ID685e03fc-0000-0006-3137-353039393138');
#492= IFCCOLUMNTYPE('3bzYiUG0X4wPwzQVOnGisx',#5,'SHS89*89*5.0',$,$,$,$,$,$,.NOTDEFINED.);
#493= IFCPROPERTYSINGLEVALUE('Bottom elevation',$,IFCLABEL(' +0.300'),$);
#494= IFCPROPERTYSINGLEVALUE('Top elevation',$,IFCLABEL(' +2.636'),$);
#495= IFCPROPERTYSINGLEVALUE('Class',$,IFCLABEL('2'),$);
#496= IFCPROPERTYSET('2LriRNVgXDpvU3bEVmBWgi',#5,'Tekla Common','Common Properties to Shared building elements',(#493,#494,#97,#98,#99,#495));
#497= IFCPROPERTYSINGLEVALUE('Weight',$,IFCMASSMEASURE(29.2),$);
#498= IFCPROPERTYSINGLEVALUE('Area per tons',$,IFCAREAMEASURE(26.8),$);
#499= IFCPROPERTYSINGLEVALUE('Net surface area',$,IFCAREAMEASURE(0.8),$);
#500= IFCPROPERTYSINGLEVALUE('Height',$,IFCLENGTHMEASURE(89.),$);
#501= IFCPROPERTYSINGLEVALUE('Width',$,IFCLENGTHMEASURE(89.),$);
#502= IFCPROPERTYSINGLEVALUE('Length',$,IFCLENGTHMEASURE(2336.),$);
#503= IFCPROPERTYSET('2AWTxGZ$XDBeEV9RvMu97D',#5,'Tekla Quantity','Quantity Properties to Shared building elements',(#497,#103,#104,#498,#499,#500,#501,#502));
#504= IFCPROPERTYSET('227HdAl8TB2xgQoFWn_0Ew',#5,'Pset_ColumnCommon','Common Properties to column elements',(#111,#112));
#505= IFCQUANTITYLENGTH('Length',$,$,2336.);
#506= IFCQUANTITYAREA('OuterSurfaceArea',$,$,0.78256);
#507= IFCQUANTITYVOLUME('NetVolume',$,$,0.00392448000000001);
#508= IFCQUANTITYWEIGHT('NetWeight',$,$,30.807168);
#509= IFCELEMENTQUANTITY('3oKLueoSv0MexeVKwdHv8p',#5,'BaseQuantities',$,$,(#505,#506,#507,#508));
#510= IFCCARTESIANPOINT((8805.5,5444.5,300.));
#511= IFCAXIS2PLACEMENT3D(#510,#8,#9);
#512= IFCLOCALPLACEMENT(#31,#511);
#513= IFCCARTESIANPOINT((2277.,-39.5,-39.5));
#514= IFCCARTESIANPOINT((2277.,39.5,-39.5));
#515= IFCPOLYLOOP((#436,#437,#513,#514));
#516= IFCFACEOUTERBOUND(#515,.T.);
#517= IFCFACE((#516));
#518= IFCCARTESIANPOINT((2277.,-39.5,39.5));
#519= IFCPOLYLOOP((#437,#443,#518,#513));
#520= IFCFACEOUTERBOUND(#519,.T.);
#521= IFCFACE((#520));
#522= IFCCARTESIANPOINT((2277.,39.5,39.5));
#523= IFCPOLYLOOP((#443,#448,#522,#518));
#524= IFCFACEOUTERBOUND(#523,.T.);
#525= IFCFACE((#524));
#526= IFCPOLYLOOP((#448,#436,#514,#522));
#527= IFCFACEOUTERBOUND(#526,.T.);
#528= IFCFACE((#527));
#529= IFCCARTESIANPOINT((2277.,44.5,44.5));
#530= IFCCARTESIANPOINT((2277.,44.5,-44.5));
#531= IFCPOLYLOOP((#456,#457,#529,#530));
#532= IFCFACEOUTERBOUND(#531,.T.);
#533= IFCFACE((#532));
#534= IFCCARTESIANPOINT((2277.,-44.5,44.5));
#535= IFCPOLYLOOP((#457,#463,#534,#529));
#536= IFCFACEOUTERBOUND(#535,.T.);
#537= IFCFACE((#536));
#538= IFCCARTESIANPOINT((2277.,-44.5,-44.5));
#539= IFCPOLYLOOP((#463,#468,#538,#534));
#540= IFCFACEOUTERBOUND(#539,.T.);
#541= IFCFACE((#540));
#542= IFCPOLYLOOP((#468,#456,#530,#538));
#543= IFCFACEOUTERBOUND(#542,.T.);
#544= IFCFACE((#543));
#545= IFCPOLYLOOP((#534,#538,#530,#529));
#546= IFCFACEOUTERBOUND(#545,.T.);
#547= IFCPOLYLOOP((#518,#522,#514,#513));
#548= IFCFACEBOUND(#547,.T.);
#549= IFCFACE((#546,#548));
#550= IFCFACE((#482,#484));
#551= IFCCLOSEDSHELL((#517,#521,#525,#528,#533,#537,#541,#544,#549,#550));
#552= IFCFACETEDBREP(#551);
#553= IFCSTYLEDITEM(#552,(#435),$);
#554= IFCSHAPEREPRESENTATION(#12,'Body','Brep',(#552));
#555= IFCPRODUCTDEFINITIONSHAPE($,$,(#554));
#556= IFCCOLUMN('1eNWFy00002Z4tDJ0vEJ4u',#5,'S6','SHS89*89*5.0','SHS89*89*5.0',#512,#555,'ID685e03fc-0000-000a-3137-353039393138');
#557= IFCPROPERTYSINGLEVALUE('Top elevation',$,IFCLABEL(' +2.577'),$);
#558= IFCPROPERTYSET('0aPetwllH74PQMKtrD3bQq',#5,'Tekla Common','Common Properties to Shared building elements',(#493,#557,#97,#98,#99,#495));
#559= IFCPROPERTYSINGLEVALUE('Weight',$,IFCMASSMEASURE(28.4),$);
#560= IFCPROPERTYSINGLEVALUE('Length',$,IFCLENGTHMEASURE(2277.),$);
#561= IFCPROPERTYSET('1FOkxT_7PCSu4Nba1aAtZk',#5,'Tekla Quantity','Quantity Properties to Shared building elements',(#559,#103,#104,#498,#499,#500,#501,#560));
#562= IFCQUANTITYLENGTH('Length',$,$,2277.);
#563= IFCQUANTITYAREA('OuterSurfaceArea',$,$,0.762795);
#564= IFCQUANTITYVOLUME('NetVolume',$,$,0.00382535999999999);
#565= IFCQUANTITYWEIGHT('NetWeight',$,$,30.029076);
#566= IFCELEMENTQUANTITY('2Qs0kJhrD4Whk9yyRM8SfO',#5,'BaseQuantities',$,$,(#562,#563,#564,#565));
#567= IFCCARTESIANPOINT((4679.5,11955.5,299.834530556094));
#568= IFCAXIS2PLACEMENT3D(#567,#8,#9);
#569= IFCLOCALPLACEMENT(#31,#568);
#570= IFCFACE((#477,#479));
#571= IFCFACE((#482,#484));
#572= IFCCLOSEDSHELL((#442,#447,#452,#455,#462,#467,#472,#475,#570,#571));
#573= IFCFACETEDBREP(#572);
#574= IFCSTYLEDITEM(#573,(#435),$);
#575= IFCSHAPEREPRESENTATION(#12,'Body','Brep',(#573));
#576= IFCPRODUCTDEFINITIONSHAPE($,$,(#575));
#577= IFCCOLUMN('1eNWFy00003Z4tDJ0vEJ4u',#5,'S8','SHS89*89*5.0','SHS89*89*5.0',#569,#576,'ID685e03fc-0000-000e-3137-353039393138');
#578= IFCCARTESIANPOINT((4679.5,5444.5,301.));
#579= IFCAXIS2PLACEMENT3D(#578,#8,#9);
#580= IFCLOCALPLACEMENT(#31,#579);
#581= IFCCARTESIANPOINT((2275.7,-39.5,-39.5));
#582= IFCCARTESIANPOINT((2275.7,39.5,-39.5));
#583= IFCPOLYLOOP((#436,#437,#581,#582));
#584= IFCFACEOUTERBOUND(#583,.T.);
#585= IFCFACE((#584));
#586= IFCCARTESIANPOINT((2275.7,-39.5,39.5));
#587= IFCPOLYLOOP((#437,#443,#586,#581));
#588= IFCFACEOUTERBOUND(#587,.T.);
#589= IFCFACE((#588));
#590= IFCCARTESIANPOINT((2275.7,39.5,39.5));
#591= IFCPOLYLOOP((#443,#448,#590,#586));
#592= IFCFACEOUTERBOUND(#591,.T.);
#593= IFCFACE((#592));
#594= IFCPOLYLOOP((#448,#436,#582,#590));
#595= IFCFACEOUTERBOUND(#594,.T.);
#596= IFCFACE((#595));
#597= IFCCARTESIANPOINT((2275.7,44.5,44.5));
#598= IFCCARTESIANPOINT((2275.7,44.5,-44.5));
#599= IFCPOLYLOOP((#456,#457,#597,#598));
#600= IFCFACEOUTERBOUND(#599,.T.);
#601= IFCFACE((#600));
#602= IFCCARTESIANPOINT((2275.7,-44.5,44.5));
#603= IFCPOLYLOOP((#457,#463,#602,#597));
#604= IFCFACEOUTERBOUND(#603,.T.);
#605= IFCFACE((#604));
#606= IFCCARTESIANPOINT((2275.7,-44.5,-44.5));
#607= IFCPOLYLOOP((#463,#468,#606,#602));
#608= IFCFACEOUTERBOUND(#607,.T.);
#609= IFCFACE((#608));
#610= IFCPOLYLOOP((#468,#456,#598,#606));
#611= IFCFACEOUTERBOUND(#610,.T.);
#612= IFCFACE((#611));
#613= IFCPOLYLOOP((#602,#606,#598,#597));
#614= IFCFACEOUTERBOUND(#613,.T.);
#615= IFCPOLYLOOP((#586,#590,#582,#581));
#616= IFCFACEBOUND(#615,.T.);
#617= IFCFACE((#614,#616));
#618= IFCFACE((#482,#484));
#619= IFCCLOSEDSHELL((#585,#589,#593,#596,#601,#605,#609,#612,#617,#618));
#620= IFCFACETEDBREP(#619);
#621= IFCSTYLEDITEM(#620,(#435),$);
#622= IFCSHAPEREPRESENTATION(#12,'Body','Brep',(#620));
#623= IFCPRODUCTDEFINITIONSHAPE($,$,(#622));
#624= IFCCOLUMN('1eNWFy00004Z4tDJ0vEJ4u',#5,'S5','SHS89*89*5.0','SHS89*89*5.0',#580,#623,'ID685e03fc-0000-0012-3137-353039393138');
#625= IFCPROPERTYSINGLEVALUE('Bottom elevation',$,IFCLABEL(' +0.301'),$);
#626= IFCPROPERTYSET('2nLel$ye18nvAomTiwtxWl',#5,'Tekla Common','Common Properties to Shared building elements',(#625,#557,#97,#98,#99,#495));
#627= IFCPROPERTYSINGLEVALUE('Length',$,IFCLENGTHMEASURE(2275.7),$);
#628= IFCPROPERTYSET('0ubg7KJfL1WQ5FxDHHG$RC',#5,'Tekla Quantity','Quantity Properties to Shared building elements',(#559,#103,#104,#498,#499,#500,#501,#627));
#629= IFCQUANTITYLENGTH('Length',$,$,2275.7);
#630= IFCQUANTITYAREA('OuterSurfaceArea',$,$,0.7623595);
#631= IFCQUANTITYVOLUME('NetVolume',$,$,0.003823176);
#632= IFCQUANTITYWEIGHT('NetWeight',$,$,30.0119316);
#633= IFCELEMENTQUANTITY('2b6Jk$mYn8awbbosYv29IM',#5,'BaseQuantities',$,$,(#629,#630,#631,#632));
#634= IFCCARTESIANPOINT((419.499999486623,5444.5,-242.));
#635= IFCAXIS2PLACEMENT3D(#634,#8,#9);
#636= IFCLOCALPLACEMENT(#31,#635);
#637= IFCCARTESIANPOINT((2819.6,-39.5,-39.5));
#638= IFCCARTESIANPOINT((2819.6,39.5,-39.5));
#639= IFCPOLYLOOP((#436,#437,#637,#638));
#640= IFCFACEOUTERBOUND(#639,.T.);
#641= IFCFACE((#640));
#642= IFCCARTESIANPOINT((2819.6,-39.5,39.5));
#643= IFCPOLYLOOP((#437,#443,#642,#637));
#644= IFCFACEOUTERBOUND(#643,.T.);
#645= IFCFACE((#644));
#646= IFCCARTESIANPOINT((2819.6,39.5,39.5));
#647= IFCPOLYLOOP((#443,#448,#646,#642));
#648= IFCFACEOUTERBOUND(#647,.T.);
#649= IFCFACE((#648));
#650= IFCPOLYLOOP((#448,#436,#638,#646));
#651= IFCFACEOUTERBOUND(#650,.T.);
#652= IFCFACE((#651));
#653= IFCCARTESIANPOINT((2819.6,44.5,44.5));
#654= IFCCARTESIANPOINT((2819.6,44.5,-44.5));
#655= IFCPOLYLOOP((#456,#457,#653,#654));
#656= IFCFACEOUTERBOUND(#655,.T.);
#657= IFCFACE((#656));
#658= IFCCARTESIANPOINT((2819.6,-44.5,44.5));
#659= IFCPOLYLOOP((#457,#463,#658,#653));
#660= IFCFACEOUTERBOUND(#659,.T.);
#661= IFCFACE((#660));
#662= IFCCARTESIANPOINT((2819.6,-44.5,-44.5));
#663= IFCPOLYLOOP((#463,#468,#662,#658));
#664= IFCFACEOUTERBOUND(#663,.T.);
#665= IFCFACE((#664));
#666= IFCPOLYLOOP((#468,#456,#654,#662));
#667= IFCFACEOUTERBOUND(#666,.T.);
#668= IFCFACE((#667));
#669= IFCPOLYLOOP((#658,#662,#654,#653));
#670= IFCFACEOUTERBOUND(#669,.T.);
#671= IFCPOLYLOOP((#642,#646,#638,#637));
#672= IFCFACEBOUND(#671,.T.);
#673= IFCFACE((#670,#672));
#674= IFCFACE((#482,#484));
#675= IFCCLOSEDSHELL((#641,#645,#649,#652,#657,#661,#665,#668,#673,#674));
#676= IFCFACETEDBREP(#675);
#677= IFCSTYLEDITEM(#676,(#435),$);
#678= IFCSHAPEREPRESENTATION(#12,'Body','Brep',(#676));
#679= IFCPRODUCTDEFINITIONSHAPE($,$,(#678));
#680= IFCCOLUMN('1eNWFy00005Z4tDJ0vEJ4u',#5,'S4','SHS89*89*5.0','SHS89*89*5.0',#636,#679,'ID685e03fc-0000-0016-3137-353039393138');
#681= IFCPROPERTYSINGLEVALUE('Bottom elevation',$,IFCLABEL(' -0.242'),$);
#682= IFCPROPERTYSINGLEVALUE('Top elevation',$,IFCLABEL(' +2.578'),$);
#683= IFCPROPERTYSET('2jTXeOjsrCaezd$Ytnyc2r',#5,'Tekla Common','Common Properties to Shared building elements',(#681,#682,#97,#98,#99,#495));
#684= IFCPROPERTYSINGLEVALUE('Weight',$,IFCMASSMEASURE(35.2),$);
#685= IFCPROPERTYSINGLEVALUE('Net surface area',$,IFCAREAMEASURE(1.),$);
#686= IFCPROPERTYSINGLEVALUE('Length',$,IFCLENGTHMEASURE(2819.6),$);
#687= IFCPROPERTYSET('3HKtRhGeD7yAcsqSlTwVvA',#5,'Tekla Quantity','Quantity Properties to Shared building elements',(#684,#103,#104,#498,#685,#500,#501,#686));
#688= IFCQUANTITYLENGTH('Length',$,$,2819.6);
#689= IFCQUANTITYAREA('OuterSurfaceArea',$,$,0.944566);
#690= IFCQUANTITYVOLUME('NetVolume',$,$,0.004736928);
#691= IFCQUANTITYWEIGHT('NetWeight',$,$,37.1848848);
#692= IFCELEMENTQUANTITY('00tt9XIS55chgbUzxvl2cR',#5,'BaseQuantities',$,$,(#688,#689,#690,#691));
#693= IFCCARTESIANPOINT((-148.925000352596,7511.5,-417.));
#694= IFCAXIS2PLACEMENT3D(#693,#8,#9);
#695= IFCLOCALPLACEMENT(#31,#694);
#696= IFCCARTESIANPOINT((3035.,-39.5,-39.5));
#697= IFCCARTESIANPOINT((3035.,39.5,-39.5));
#698= IFCPOLYLOOP((#436,#437,#696,#697));
#699= IFCFACEOUTERBOUND(#698,.T.);
#700= IFCFACE((#699));
#701= IFCCARTESIANPOINT((3035.,-39.5,39.5));
#702= IFCPOLYLOOP((#437,#443,#701,#696));
#703= IFCFACEOUTERBOUND(#702,.T.);
#704= IFCFACE((#703));
#705= IFCCARTESIANPOINT((3035.,39.5,39.5));
#706= IFCPOLYLOOP((#443,#448,#705,#701));
#707= IFCFACEOUTERBOUND(#706,.T.);
#708= IFCFACE((#707));
#709= IFCPOLYLOOP((#448,#436,#697,#705));
#710= IFCFACEOUTERBOUND(#709,.T.);
#711= IFCFACE((#710));
#712= IFCCARTESIANPOINT((3035.,44.5,44.5));
#713= IFCCARTESIANPOINT((3035.,44.5,-44.5));
#714= IFCPOLYLOOP((#456,#457,#712,#713));
#715= IFCFACEOUTERBOUND(#714,.T.);
#716= IFCFACE((#715));
#717= IFCCARTESIANPOINT((3035.,-44.5,44.5));
#718= IFCPOLYLOOP((#457,#463,#717,#712));
#719= IFCFACEOUTERBOUND(#718,.T.);
#720= IFCFACE((#719));
#721= IFCCARTESIANPOINT((3035.,-44.5,-44.5));
#722= IFCPOLYLOOP((#463,#468,#721,#717));
#723= IFCFACEOUTERBOUND(#722,.T.);
#724= IFCFACE((#723));
#725= IFCPOLYLOOP((#468,#456,#713,#721));
#726= IFCFACEOUTERBOUND(#725,.T.);
#727= IFCFACE((#726));
#728= IFCPOLYLOOP((#717,#721,#713,#712));
#729= IFCFACEOUTERBOUND(#728,.T.);
#730= IFCPOLYLOOP((#701,#705,#697,#696));
#731= IFCFACEBOUND(#730,.T.);
#732= IFCFACE((#729,#731));
#733= IFCFACE((#482,#484));
#734= IFCCLOSEDSHELL((#700,#704,#708,#711,#716,#720,#724,#727,#732,#733));
#735= IFCFACETEDBREP(#734);
#736= IFCSTYLEDITEM(#735,(#435),$);
#737= IFCSHAPEREPRESENTATION(#12,'Body','Brep',(#735));
#738= IFCPRODUCTDEFINITIONSHAPE($,$,(#737));
#739= IFCCOLUMN('1eNWFy00006Z4tDJ0vEJ4u',#5,'S3','SHS89*89*5.0','SHS89*89*5.0',#695,#738,'ID685e03fc-0000-001a-3137-353039393138');
#740= IFCPROPERTYSINGLEVALUE('Bottom elevation',$,IFCLABEL(' -0.417'),$);
#741= IFCPROPERTYSINGLEVALUE('Top elevation',$,IFCLABEL(' +2.618'),$);
#742= IFCPROPERTYSET('0kByLrNVzDtQ6j8$H9fKqb',#5,'Tekla Common','Common Properties to Shared building elements',(#740,#741,#97,#98,#99,#495));
#743= IFCPROPERTYSINGLEVALUE('Weight',$,IFCMASSMEASURE(37.9),$);
#744= IFCPROPERTYSINGLEVALUE('Net surface area',$,IFCAREAMEASURE(1.1),$);
#745= IFCPROPERTYSINGLEVALUE('Length',$,IFCLENGTHMEASURE(3035.),$);
#746= IFCPROPERTYSET('3nZCVdN3bBSx9VHBPCcCWH',#5,'Tekla Quantity','Quantity Properties to Shared building elements',(#743,#103,#104,#498,#744,#500,#501,#745));
#747= IFCQUANTITYLENGTH('Length',$,$,3035.);
#748= IFCQUANTITYAREA('OuterSurfaceArea',$,$,1.016725);
#749= IFCQUANTITYVOLUME('NetVolume',$,$,0.00509879999999999);
#750= IFCQUANTITYWEIGHT('NetWeight',$,$,40.0255799999999);
#751= IFCELEMENTQUANTITY('2DDGktdbDAoPfpBos4XkM_',#5,'BaseQuantities',$,$,(#747,#748,#749,#750));
#752= IFCCARTESIANPOINT((-772.075000176337,9777.5,-582.));
#753= IFCAXIS2PLACEMENT3D(#752,#8,#9);
#754= IFCLOCALPLACEMENT(#31,#753);
#755= IFCCARTESIANPOINT((3245.,-39.5,-39.5));
#756= IFCCARTESIANPOINT((3245.,39.5,-39.5));
#757= IFCPOLYLOOP((#436,#437,#755,#756));
#758= IFCFACEOUTERBOUND(#757,.T.);
#759= IFCFACE((#758));
#760= IFCCARTESIANPOINT((3245.,-39.5,39.5));
#761= IFCPOLYLOOP((#437,#443,#760,#755));
#762= IFCFACEOUTERBOUND(#761,.T.);
#763= IFCFACE((#762));
#764= IFCCARTESIANPOINT((3245.,39.5,39.5));
#765= IFCPOLYLOOP((#443,#448,#764,#760));
#766= IFCFACEOUTERBOUND(#765,.T.);
#767= IFCFACE((#766));
#768= IFCPOLYLOOP((#448,#436,#756,#764));
#769= IFCFACEOUTERBOUND(#768,.T.);
#770= IFCFACE((#769));
#771= IFCCARTESIANPOINT((3245.,44.5,44.5));
#772= IFCCARTESIANPOINT((3245.,44.5,-44.5));
#773= IFCPOLYLOOP((#456,#457,#771,#772));
#774= IFCFACEOUTERBOUND(#773,.T.);
#775= IFCFACE((#774));
#776= IFCCARTESIANPOINT((3245.,-44.5,44.5));
#777= IFCPOLYLOOP((#457,#463,#776,#771));
#778= IFCFACEOUTERBOUND(#777,.T.);
#779= IFCFACE((#778));
#780= IFCCARTESIANPOINT((3245.,-44.5,-44.5));
#781= IFCPOLYLOOP((#463,#468,#780,#776));
#782= IFCFACEOUTERBOUND(#781,.T.);
#783= IFCFACE((#782));
#784= IFCPOLYLOOP((#468,#456,#772,#780));
#785= IFCFACEOUTERBOUND(#784,.T.);
#786= IFCFACE((#785));
#787= IFCPOLYLOOP((#776,#780,#772,#771));
#788= IFCFACEOUTERBOUND(#787,.T.);
#789= IFCPOLYLOOP((#760,#764,#756,#755));
#790= IFCFACEBOUND(#789,.T.);
#791= IFCFACE((#788,#790));
#792= IFCFACE((#482,#484));
#793= IFCCLOSEDSHELL((#759,#763,#767,#770,#775,#779,#783,#786,#791,#792));
#794= IFCFACETEDBREP(#793);
#795= IFCSTYLEDITEM(#794,(#435),$);
#796= IFCSHAPEREPRESENTATION(#12,'Body','Brep',(#794));
#797= IFCPRODUCTDEFINITIONSHAPE($,$,(#796));
#798= IFCCOLUMN('1eNWFy00007Z4tDJ0vEJ4u',#5,'S2','SHS89*89*5.0','SHS89*89*5.0',#754,#797,'ID685e03fc-0000-001e-3137-353039393138');
#799= IFCPROPERTYSINGLEVALUE('Bottom elevation',$,IFCLABEL(' -0.582'),$);
#800= IFCPROPERTYSINGLEVALUE('Top elevation',$,IFCLABEL(' +2.663'),$);
#801= IFCPROPERTYSET('3eoduzGe58_wMLjXzVWIQa',#5,'Tekla Common','Common Properties to Shared building elements',(#799,#800,#97,#98,#99,#495));
#802= IFCPROPERTYSINGLEVALUE('Weight',$,IFCMASSMEASURE(40.5),$);
#803= IFCPROPERTYSINGLEVALUE('Net surface area',$,IFCAREAMEASURE(1.2),$);
#804= IFCPROPERTYSINGLEVALUE('Length',$,IFCLENGTHMEASURE(3245.),$);
#805= IFCPROPERTYSET('3HuqVlFt57uxOMK1f8wFJr',#5,'Tekla Quantity','Quantity Properties to Shared building elements',(#802,#103,#104,#498,#803,#500,#501,#804));
#806= IFCQUANTITYLENGTH('Length',$,$,3245.);
#807= IFCQUANTITYAREA('OuterSurfaceArea',$,$,1.087075);
#808= IFCQUANTITYVOLUME('NetVolume',$,$,0.00545159999999999);
#809= IFCQUANTITYWEIGHT('NetWeight',$,$,42.79506);
#810= IFCELEMENTQUANTITY('1BDc4AT9X1NQ1X$k$hRipW',#5,'BaseQuantities',$,$,(#806,#807,#808,#809));
#811= IFCCARTESIANPOINT((-1400.5,11960.5,-532.));
#812= IFCAXIS2PLACEMENT3D(#811,#8,#9);
#813= IFCLOCALPLACEMENT(#31,#812);
#814= IFCCARTESIANPOINT((3169.,-39.5,-39.5));
#815= IFCCARTESIANPOINT((3169.,39.5,-39.5));
#816= IFCPOLYLOOP((#436,#437,#814,#815));
#817= IFCFACEOUTERBOUND(#816,.T.);
#818= IFCFACE((#817));
#819= IFCCARTESIANPOINT((3169.,-39.5,39.5));
#820= IFCPOLYLOOP((#437,#443,#819,#814));
#821= IFCFACEOUTERBOUND(#820,.T.);
#822= IFCFACE((#821));
#823= IFCCARTESIANPOINT((3169.,39.5,39.5));
#824= IFCPOLYLOOP((#443,#448,#823,#819));
#825= IFCFACEOUTERBOUND(#824,.T.);
#826= IFCFACE((#825));
#827= IFCPOLYLOOP((#448,#436,#815,#823));
#828= IFCFACEOUTERBOUND(#827,.T.);
#829= IFCFACE((#828));
#830= IFCCARTESIANPOINT((3169.,44.5,44.5));
#831= IFCCARTESIANPOINT((3169.,44.5,-44.5));
#832= IFCPOLYLOOP((#456,#457,#830,#831));
#833= IFCFACEOUTERBOUND(#832,.T.);
#834= IFCFACE((#833));
#835= IFCCARTESIANPOINT((3169.,-44.5,44.5));
#836= IFCPOLYLOOP((#457,#463,#835,#830));
#837= IFCFACEOUTERBOUND(#836,.T.);
#838= IFCFACE((#837));
#839= IFCCARTESIANPOINT((3169.,-44.5,-44.5));
#840= IFCPOLYLOOP((#463,#468,#839,#835));
#841= IFCFACEOUTERBOUND(#840,.T.);
#842= IFCFACE((#841));
#843= IFCPOLYLOOP((#468,#456,#831,#839));
#844= IFCFACEOUTERBOUND(#843,.T.);
#845= IFCFACE((#844));
#846= IFCPOLYLOOP((#835,#839,#831,#830));
#847= IFCFACEOUTERBOUND(#846,.T.);
#848= IFCPOLYLOOP((#819,#823,#815,#814));
#849= IFCFACEBOUND(#848,.T.);
#850= IFCFACE((#847,#849));
#851= IFCFACE((#482,#484));
#852= IFCCLOSEDSHELL((#818,#822,#826,#829,#834,#838,#842,#845,#850,#851));
#853= IFCFACETEDBREP(#852);
#854= IFCSTYLEDITEM(#853,(#435),$);
#855= IFCSHAPEREPRESENTATION(#12,'Body','Brep',(#853));
#856= IFCPRODUCTDEFINITIONSHAPE($,$,(#855));
#857= IFCCOLUMN('1eNWFy00008J4tDJ0vEJ4u',#5,'S1','SHS89*89*5.0','SHS89*89*5.0',#813,#856,'ID685e03fc-0000-0021-3137-353039393138');
#858= IFCPROPERTYSINGLEVALUE('Bottom elevation',$,IFCLABEL(' -0.532'),$);
#859= IFCPROPERTYSINGLEVALUE('Top elevation',$,IFCLABEL(' +2.637'),$);
#860= IFCPROPERTYSET('27nvfETsrCtfnESwkJe8a4',#5,'Tekla Common','Common Properties to Shared building elements',(#858,#859,#97,#98,#99,#495));
#861= IFCPROPERTYSINGLEVALUE('Weight',$,IFCMASSMEASURE(39.6),$);
#862= IFCPROPERTYSINGLEVALUE('Length',$,IFCLENGTHMEASURE(3169.),$);
#863= IFCPROPERTYSET('3UnRx$ZPD8jvRxnUy5NbdT',#5,'Tekla Quantity','Quantity Properties to Shared building elements',(#861,#103,#104,#498,#744,#500,#501,#862));
#864= IFCQUANTITYLENGTH('Length',$,$,3169.);
#865= IFCQUANTITYAREA('OuterSurfaceArea',$,$,1.061615);
#866= IFCQUANTITYVOLUME('NetVolume',$,$,0.00532392);
#867= IFCQUANTITYWEIGHT('NetWeight',$,$,41.792772);
#868= IFCELEMENTQUANTITY('3godWaXcf5YRznxr$Kc$19',#5,'BaseQuantities',$,$,(#864,#865,#866,#867));
#869= IFCCARTESIANPOINT((1560.,12620.0799640358,2950.50189923031));
#870= IFCDIRECTION((-1.,0.,0.));
#871= IFCAXIS2PLACEMENT3D(#869,#121,#870);
#872= IFCLOCALPLACEMENT(#31,#871);
#873= IFCCOLOURRGB('Dark Green',0.4,0.698039215686274,0.2);
#874= IFCSURFACESTYLERENDERING(#873,0.,$,$,$,$,IFCNORMALISEDRATIOMEASURE(0.00390625),IFCSPECULAREXPONENT(10.),.NOTDEFINED.);
#875= IFCSURFACESTYLE('STEEL/300PLUS',.POSITIVE.,(#874));
#876= IFCPRESENTATIONSTYLEASSIGNMENT((#875));
#877= IFCCARTESIANPOINT((0.,-0.501899230309846,0.));
#878= IFCCARTESIANPOINT((-8040.,-0.501899230309846,1.9073486328125E-006));
#879= IFCCARTESIANPOINT((-8040.,0.501899230309846,1.9073486328125E-006));
#880= IFCCARTESIANPOINT((0.,0.501899230309846,0.));
#881= IFCPOLYLOOP((#877,#878,#879,#880));
#882= IFCFACEOUTERBOUND(#881,.T.);
#883= IFCFACE((#882));
#884= IFCCARTESIANPOINT((-8040.,159.49810076969,8020.));
#885= IFCCARTESIANPOINT((-8040.,160.50189923031,8020.));
#886= IFCPOLYLOOP((#878,#884,#885,#879));
#887= IFCFACEOUTERBOUND(#886,.T.);
#888= IFCFACE((#887));
#889= IFCCARTESIANPOINT((3375.,159.49810076969,8020.));
#890= IFCCARTESIANPOINT((3375.,160.50189923031,8020.));
#891= IFCPOLYLOOP((#884,#889,#890,#885));
#892= IFCFACEOUTERBOUND(#891,.T.);
#893= IFCFACE((#892));
#894= IFCCARTESIANPOINT((3375.,-0.501899230309846,-2.16459739021957E-010));
#895= IFCCARTESIANPOINT((3375.,0.501899230309846,-2.16459739021957E-010));
#896= IFCPOLYLOOP((#889,#894,#895,#890));
#897= IFCFACEOUTERBOUND(#896,.T.);
#898= IFCFACE((#897));
#899= IFCPOLYLOOP((#894,#877,#880,#895));
#900= IFCFACEOUTERBOUND(#899,.T.);
#901= IFCFACE((#900));
#902= IFCPOLYLOOP((#885,#890,#895,#880,#879));
#903= IFCFACEOUTERBOUND(#902,.T.);
#904= IFCFACE((#903));
#905= IFCPOLYLOOP((#894,#889,#884,#878,#877));
#906= IFCFACEOUTERBOUND(#905,.T.);
#907= IFCFACE((#906));
#908= IFCCLOSEDSHELL((#883,#888,#893,#898,#901,#904,#907));
#909= IFCFACETEDBREP(#908);
#910= IFCSTYLEDITEM(#909,(#876),$);
#911= IFCSHAPEREPRESENTATION(#12,'Body','Brep',(#909));
#912= IFCPRODUCTDEFINITIONSHAPE($,$,(#911));
#913= IFCPLATE('1eNWFy00009J4tDJ0vEJ4u',#5,'2%Slope','PLT1*8020','PLT1*8020',#872,#912,'ID685e03fc-0000-0025-3137-353039393138');
#914= IFCPLATETYPE('0Nr5MqIj9BKuqYfzTAvkuT',#5,'PLT1*8020',$,$,$,$,$,$,.NOTDEFINED.);
#915= IFCPROPERTYSINGLEVALUE('Bottom elevation',$,IFCLABEL(' +2.790'),$);
#916= IFCPROPERTYSINGLEVALUE('Top elevation',$,IFCLABEL(' +2.951'),$);
#917= IFCPROPERTYSINGLEVALUE('Class',$,IFCLABEL('10'),$);
#918= IFCPROPERTYSET('0RfRn6d1X2Mfg5X_6mjnBd',#5,'Tekla Common','Common Properties to Shared building elements',(#915,#916,#97,#98,#99,#917));
#919= IFCPROPERTYSINGLEVALUE('Weight',$,IFCMASSMEASURE(721.4),$);
#920= IFCPROPERTYSINGLEVALUE('Area per tons',$,IFCAREAMEASURE(253.9),$);
#921= IFCPROPERTYSINGLEVALUE('Net surface area',$,IFCAREAMEASURE(183.2),$);
#922= IFCPROPERTYSINGLEVALUE('Height',$,IFCLENGTHMEASURE(8020.),$);
#923= IFCPROPERTYSINGLEVALUE('Width',$,IFCLENGTHMEASURE(161.),$);
#924= IFCPROPERTYSINGLEVALUE('Length',$,IFCLENGTHMEASURE(11415.),$);
#925= IFCPROPERTYSET('0ymtZ0GnX2s871jdpHN7LO',#5,'Tekla Quantity','Quantity Properties to Shared building elements',(#919,#358,#104,#920,#921,#922,#923,#924));
#926= IFCPROPERTYSET('2KjiO0WSH5Tftny4olLJ5Z',#5,'Pset_PlateCommon','Common Properties to plate elements',(#111,#112));
#927= IFCQUANTITYLENGTH('Width',$,$,8020.00000000022);
#928= IFCQUANTITYAREA('NetArea',$,$,183.172050913743);
#929= IFCQUANTITYAREA('GrossArea',$,$,91.5483000000025);
#930= IFCQUANTITYAREA('CrossSectionArea',$,$,1.00761134954246E-006);
#931= IFCQUANTITYVOLUME('NetVolume',$,$,0.0918960427762683);
#932= IFCQUANTITYVOLUME('GrossVolume',$,$,0.0918960427762683);
#933= IFCELEMENTQUANTITY('3Th6AHIJjAdh7uSSh7w2Ce',#5,'BaseQuantities',$,$,(#927,#928,#929,#930,#931,#932));
#934= IFCCARTESIANPOINT((929.999999508255,5699.99999986477,-292.));
#935= IFCAXIS2PLACEMENT3D(#934,#121,#870);
#936= IFCLOCALPLACEMENT(#31,#935);
#937= IFCCARTESIANPOINT((0.,-50.,500.));
#938= IFCCARTESIANPOINT((0.,50.,500.));
#939= IFCPOLYLOOP((#190,#937,#938,#193));
#940= IFCFACEOUTERBOUND(#939,.T.);
#941= IFCFACE((#940));
#942= IFCCARTESIANPOINT((500.,-50.,500.));
#943= IFCCARTESIANPOINT((500.,50.,500.));
#944= IFCPOLYLOOP((#937,#942,#943,#938));
#945= IFCFACEOUTERBOUND(#944,.T.);
#946= IFCFACE((#945));
#947= IFCCARTESIANPOINT((500.,-50.,0.));
#948= IFCCARTESIANPOINT((500.,50.,0.));
#949= IFCPOLYLOOP((#942,#947,#948,#943));
#950= IFCFACEOUTERBOUND(#949,.T.);
#951= IFCFACE((#950));
#952= IFCPOLYLOOP((#947,#190,#193,#948));
#953= IFCFACEOUTERBOUND(#952,.T.);
#954= IFCFACE((#953));
#955= IFCPOLYLOOP((#943,#948,#193,#938));
#956= IFCFACEOUTERBOUND(#955,.T.);
#957= IFCFACE((#956));
#958= IFCPOLYLOOP((#947,#942,#937,#190));
#959= IFCFACEOUTERBOUND(#958,.T.);
#960= IFCFACE((#959));
#961= IFCCLOSEDSHELL((#941,#946,#951,#954,#957,#960));
#962= IFCFACETEDBREP(#961);
#963= IFCSTYLEDITEM(#962,(#127),$);
#964= IFCSHAPEREPRESENTATION(#12,'Body','Brep',(#962));
#965= IFCPRODUCTDEFINITIONSHAPE($,$,(#964));
#966= IFCSLAB('1eNWFy0000DJ4tDJ0vEJ4u',#5,'Unnamed','100*500','100*500',#936,#965,'ID685e03fc-0000-0035-3137-353039393138',.FLOOR.);
#967= IFCSLABTYPE('3UMVa6pSX52AuVjMrPY1$t',#5,'100*500',$,$,$,$,$,$,.NOTDEFINED.);
#968= IFCPROPERTYSINGLEVALUE('Bottom elevation',$,IFCLABEL(' -0.342'),$);
#969= IFCPROPERTYSINGLEVALUE('Top elevation',$,IFCLABEL(' -0.242'),$);
#970= IFCPROPERTYSET('3V3Yv952T4iglofK3nbeqC',#5,'Tekla Common','Common Properties to Shared building elements',(#968,#969,#97,#98,#99,#168));
#971= IFCPROPERTYSINGLEVALUE('Weight',$,IFCMASSMEASURE(62.5),$);
#972= IFCPROPERTYSINGLEVALUE('Gross footprint area',$,IFCAREAMEASURE(0.3),$);
#973= IFCPROPERTYSINGLEVALUE('Area per tons',$,IFCAREAMEASURE(11.2),$);
#974= IFCPROPERTYSINGLEVALUE('Height',$,IFCLENGTHMEASURE(500.),$);
#975= IFCPROPERTYSINGLEVALUE('Length',$,IFCLENGTHMEASURE(500.),$);
#976= IFCPROPERTYSET('01IM3yUiz4$BdLz$dCmTe6',#5,'Tekla Quantity','Quantity Properties to Shared building elements',(#971,#103,#972,#973,#499,#974,#237,#975));
#977= IFCQUANTITYVOLUME('NetVolume',$,$,0.025);
#978= IFCQUANTITYAREA('NetArea',$,$,0.25);
#979= IFCQUANTITYWEIGHT('NetWeight',$,$,62.5);
#980= IFCELEMENTQUANTITY('0ApTVtJcTD1QY0_F5NxT9n',#5,'BaseQuantities',$,$,(#240,#977,#978,#979));
#981= IFCCARTESIANPOINT((306.574999647404,7967.,-467.));
#982= IFCAXIS2PLACEMENT3D(#981,#121,#870);
#983= IFCLOCALPLACEMENT(#31,#982);
#984= IFCSHAPEREPRESENTATION(#12,'Body','Brep',(#962));
#985= IFCPRODUCTDEFINITIONSHAPE($,$,(#984));
#986= IFCSLAB('1eNWFy0000EJ4tDJ0vEJ4u',#5,'Unnamed','100*500','100*500',#983,#985,'ID685e03fc-0000-0039-3137-353039393138',.FLOOR.);
#987= IFCPROPERTYSINGLEVALUE('Bottom elevation',$,IFCLABEL(' -0.517'),$);
#988= IFCPROPERTYSINGLEVALUE('Top elevation',$,IFCLABEL(' -0.417'),$);
#989= IFCPROPERTYSET('1$DDMBKA93nxGuB7cdP$R2',#5,'Tekla Common','Common Properties to Shared building elements',(#987,#988,#97,#98,#99,#168));
#990= IFCCARTESIANPOINT((9500.,11100.,-390.));
#991= IFCAXIS2PLACEMENT3D(#990,#121,#870);
#992= IFCLOCALPLACEMENT(#31,#991);
#993= IFCSHAPEREPRESENTATION(#12,'Body','Brep',(#962));
#994= IFCPRODUCTDEFINITIONSHAPE($,$,(#993));
#995= IFCSLAB('1eNWFy0000HJ4tDJ0vEJ4u',#5,'Unnamed','100*500','100*500',#992,#994,'ID685e03fc-0000-0045-3137-353039393138',.FLOOR.);
#996= IFCPROPERTYSINGLEVALUE('Bottom elevation',$,IFCLABEL(' -0.440'),$);
#997= IFCPROPERTYSINGLEVALUE('Top elevation',$,IFCLABEL(' -0.340'),$);
#998= IFCPROPERTYSET('0Cnuc_zQv3JQa$i$vDs4KL',#5,'Tekla Common','Common Properties to Shared building elements',(#996,#997,#97,#98,#99,#168));
#999= IFCCARTESIANPOINT((4960.,11100.,-77.));
#1000= IFCAXIS2PLACEMENT3D(#999,#121,#870);
#1001= IFCLOCALPLACEMENT(#31,#1000);
#1002= IFCSHAPEREPRESENTATION(#12,'Body','Brep',(#962));
#1003= IFCPRODUCTDEFINITIONSHAPE($,$,(#1002));
#1004= IFCSLAB('1eNWFy0000IJ4tDJ0vEJ4u',#5,'Unnamed','100*500','100*500',#1001,#1003,'ID685e03fc-0000-0049-3137-353039393138',.FLOOR.);
#1005= IFCPROPERTYSINGLEVALUE('Bottom elevation',$,IFCLABEL(' -0.127'),$);
#1006= IFCPROPERTYSINGLEVALUE('Top elevation',$,IFCLABEL(' -0.027'),$);
#1007= IFCPROPERTYSET('19QiL7bmL1oueGDVE3KVJu',#5,'Tekla Common','Common Properties to Shared building elements',(#1005,#1006,#97,#98,#99,#168));
#1008= IFCCARTESIANPOINT((9500.,6233.,-72.));
#1009= IFCAXIS2PLACEMENT3D(#1008,#121,#870);
#1010= IFCLOCALPLACEMENT(#31,#1009);
#1011= IFCSHAPEREPRESENTATION(#12,'Body','Brep',(#962));
#1012= IFCPRODUCTDEFINITIONSHAPE($,$,(#1011));
#1013= IFCSLAB('1eNWFy0000JJ4tDJ0vEJ4u',#5,'Unnamed','100*500','100*500',#1010,#1012,'ID685e03fc-0000-004d-3137-353039393138',.FLOOR.);
#1014= IFCPROPERTYSINGLEVALUE('Bottom elevation',$,IFCLABEL(' -0.122'),$);
#1015= IFCPROPERTYSINGLEVALUE('Top elevation',$,IFCLABEL(' -0.022'),$);
#1016= IFCPROPERTYSET('3BN2aFXFLDgQiiqfou0O$k',#5,'Tekla Common','Common Properties to Shared building elements',(#1014,#1015,#97,#98,#99,#168));
#1017= IFCCARTESIANPOINT((-316.575000176337,10233.,-632.));
#1018= IFCAXIS2PLACEMENT3D(#1017,#121,#870);
#1019= IFCLOCALPLACEMENT(#31,#1018);
#1020= IFCSHAPEREPRESENTATION(#12,'Body','Brep',(#962));
#1021= IFCPRODUCTDEFINITIONSHAPE($,$,(#1020));
#1022= IFCSLAB('1eNWFy0000KJ4tDJ0vEJ4u',#5,'Unnamed','100*500','100*500',#1019,#1021,'ID685e03fc-0000-0051-3137-353039393138',.FLOOR.);
#1023= IFCPROPERTYSINGLEVALUE('Bottom elevation',$,IFCLABEL(' -0.682'),$);
#1024= IFCPROPERTYSINGLEVALUE('Top elevation',$,IFCLABEL(' -0.582'),$);
#1025= IFCPROPERTYSET('3_e7nR5ObCkx4azgsUQ4Wm',#5,'Tekla Common','Common Properties to Shared building elements',(#1023,#1024,#97,#98,#99,#168));
#1026= IFCCARTESIANPOINT((4960.,6233.,-59.));
#1027= IFCAXIS2PLACEMENT3D(#1026,#121,#870);
#1028= IFCLOCALPLACEMENT(#31,#1027);
#1029= IFCSHAPEREPRESENTATION(#12,'Body','Brep',(#962));
#1030= IFCPRODUCTDEFINITIONSHAPE($,$,(#1029));
#1031= IFCSLAB('1eNWFy0000LJ4tDJ0vEJ4u',#5,'Unnamed','100*500','100*500',#1028,#1030,'ID685e03fc-0000-0055-3137-353039393138',.FLOOR.);
#1032= IFCPROPERTYSINGLEVALUE('Bottom elevation',$,IFCLABEL(' -0.109'),$);
#1033= IFCPROPERTYSINGLEVALUE('Top elevation',$,IFCLABEL(' -0.009'),$);
#1034= IFCPROPERTYSET('3vshOJHN15hxRgx_K5MjHk',#5,'Tekla Common','Common Properties to Shared building elements',(#1032,#1033,#97,#98,#99,#168));
#1035= IFCCARTESIANPOINT((-940.,12000.,-582.));
#1036= IFCAXIS2PLACEMENT3D(#1035,#121,#870);
#1037= IFCLOCALPLACEMENT(#31,#1036);
#1038= IFCSHAPEREPRESENTATION(#12,'Body','Brep',(#962));
#1039= IFCPRODUCTDEFINITIONSHAPE($,$,(#1038));
#1040= IFCSLAB('1eNWFy0000M34tDJ0vEJ4u',#5,'Unnamed','100*500','100*500',#1037,#1039,'ID685e03fc-0000-0058-3137-353039393138',.FLOOR.);
#1041= IFCPROPERTYSINGLEVALUE('Bottom elevation',$,IFCLABEL(' -0.632'),$);
#1042= IFCPROPERTYSINGLEVALUE('Top elevation',$,IFCLABEL(' -0.532'),$);
#1043= IFCPROPERTYSET('3Hgtr3UVv1MfIXR6BsABvP',#5,'Tekla Common','Common Properties to Shared building elements',(#1041,#1042,#97,#98,#99,#168));
#1044= IFCCARTESIANPOINT((9000.,12310.,1625.));
#1045= IFCAXIS2PLACEMENT3D(#1044,#9,#870);
#1046= IFCLOCALPLACEMENT(#31,#1045);
#1047= IFCCARTESIANPOINT((0.,310.,-1325.));
#1048= IFCCARTESIANPOINT((0.,310.,1325.));
#1049= IFCCARTESIANPOINT((7440.,310.,1325.));
#1050= IFCCARTESIANPOINT((7440.,310.,-1325.));
#1051= IFCPOLYLOOP((#1047,#1048,#1049,#1050));
#1052= IFCFACEOUTERBOUND(#1051,.T.);
#1053= IFCFACE((#1052));
#1054= IFCCARTESIANPOINT((0.,-310.,1325.));
#1055= IFCCARTESIANPOINT((7440.,-310.,1325.));
#1056= IFCPOLYLOOP((#1048,#1054,#1055,#1049));
#1057= IFCFACEOUTERBOUND(#1056,.T.);
#1058= IFCFACE((#1057));
#1059= IFCCARTESIANPOINT((0.,-310.,-1325.));
#1060= IFCCARTESIANPOINT((7440.,-310.,-1325.));
#1061= IFCPOLYLOOP((#1054,#1059,#1060,#1055));
#1062= IFCFACEOUTERBOUND(#1061,.T.);
#1063= IFCFACE((#1062));
#1064= IFCPOLYLOOP((#1059,#1047,#1050,#1060));
#1065= IFCFACEOUTERBOUND(#1064,.T.);
#1066= IFCFACE((#1065));
#1067= IFCPOLYLOOP((#1055,#1060,#1050,#1049));
#1068= IFCFACEOUTERBOUND(#1067,.T.);
#1069= IFCFACE((#1068));
#1070= IFCPOLYLOOP((#1059,#1054,#1048,#1047));
#1071= IFCFACEOUTERBOUND(#1070,.T.);
#1072= IFCFACE((#1071));
#1073= IFCCLOSEDSHELL((#1053,#1058,#1063,#1066,#1069,#1072));
#1074= IFCFACETEDBREP(#1073);
#1075= IFCSTYLEDITEM(#1074,(#127),$);
#1076= IFCSHAPEREPRESENTATION(#12,'Body','Brep',(#1074));
#1077= IFCPRODUCTDEFINITIONSHAPE($,$,(#1076));
#1078= IFCWALL('1eNWFy0000RJ4tDJ0vEJ4u',#5,'Unnamed','620*2650','620*2650',#1046,#1077,'ID685e03fc-0000-006d-3137-353039393138');
#1079= IFCWALLTYPE('3futOyGV53HOarA6w0Xh5O',#5,'620*2650',$,$,$,$,$,$,.NOTDEFINED.);
#1080= IFCPROPERTYSINGLEVALUE('Top elevation',$,IFCLABEL(' +2.950'),$);
#1081= IFCPROPERTYSET('0mEHz1fprECP6kvhY2mbQw',#5,'Tekla Common','Common Properties to Shared building elements',(#493,#1080,#97,#98,#99,#168));
#1082= IFCPROPERTYSINGLEVALUE('Weight',$,IFCMASSMEASURE(30559.8),$);
#1083= IFCPROPERTYSINGLEVALUE('Volume',$,IFCVOLUMEMEASURE(12.2),$);
#1084= IFCPROPERTYSINGLEVALUE('Gross footprint area',$,IFCAREAMEASURE(4.6),$);
#1085= IFCPROPERTYSINGLEVALUE('Area per tons',$,IFCAREAMEASURE(1.7),$);
#1086= IFCPROPERTYSINGLEVALUE('Net surface area',$,IFCAREAMEASURE(51.9),$);
#1087= IFCPROPERTYSINGLEVALUE('Height',$,IFCLENGTHMEASURE(2650.),$);
#1088= IFCPROPERTYSINGLEVALUE('Width',$,IFCLENGTHMEASURE(620.),$);
#1089= IFCPROPERTYSINGLEVALUE('Length',$,IFCLENGTHMEASURE(7440.),$);
#1090= IFCPROPERTYSET('0LYgPWSMTAL8HbqW8BDmAi',#5,'Tekla Quantity','Quantity Properties to Shared building elements',(#1082,#1083,#1084,#1085,#1086,#1087,#1088,#1089));
#1091= IFCPROPERTYSINGLEVALUE('Reference',$,IFCIDENTIFIER('\X2\6DF751DD571F005F00430050002D0031002F00300028003F0029\X0\'),$);
#1092= IFCPROPERTYSET('2V4zZsHPn5KxR2YA2iSusX',#5,'Pset_WallCommon','Common Properties to wall elements',(#111,#1091));
#1093= IFCQUANTITYLENGTH('Length',$,$,7440.);
#1094= IFCQUANTITYAREA('OuterSurfaceArea',$,$,51.9436);
#1095= IFCQUANTITYVOLUME('NetVolume',$,$,12.22392);
#1096= IFCQUANTITYWEIGHT('NetWeight',$,$,30559.8);
#1097= IFCELEMENTQUANTITY('2JI4aeNlj6EuBv0n7LJSAN',#5,'BaseQuantities',$,$,(#1093,#1094,#1095,#1096));
#1098= IFCCARTESIANPOINT((0.,-2000.));
#1099= IFCCARTESIANPOINT((0.,14000.));
#1100= IFCPOLYLINE((#1098,#1099));
#1101= IFCGRIDAXIS('A',#1100,.T.);
#1102= IFCCARTESIANPOINT((3000.,-2000.));
#1103= IFCCARTESIANPOINT((3000.,14000.));
#1104= IFCPOLYLINE((#1102,#1103));
#1105= IFCGRIDAXIS('B',#1104,.T.);
#1106= IFCCARTESIANPOINT((6000.,-2000.));
#1107= IFCCARTESIANPOINT((6000.,14000.));
#1108= IFCPOLYLINE((#1106,#1107));
#1109= IFCGRIDAXIS('C',#1108,.T.);
#1110= IFCCARTESIANPOINT((9000.,-2000.));
#1111= IFCCARTESIANPOINT((9000.,14000.));
#1112= IFCPOLYLINE((#1110,#1111));
#1113= IFCGRIDAXIS('D',#1112,.T.);
#1114= IFCCARTESIANPOINT((-2000.,0.));
#1115= IFCCARTESIANPOINT((11000.,0.));
#1116= IFCPOLYLINE((#1114,#1115));
#1117= IFCGRIDAXIS('1',#1116,.T.);
#1118= IFCCARTESIANPOINT((-2000.,4000.));
#1119= IFCCARTESIANPOINT((11000.,4000.));
#1120= IFCPOLYLINE((#1118,#1119));
#1121= IFCGRIDAXIS('2',#1120,.T.);
#1122= IFCCARTESIANPOINT((-2000.,8000.));
#1123= IFCCARTESIANPOINT((11000.,8000.));
#1124= IFCPOLYLINE((#1122,#1123));
#1125= IFCGRIDAXIS('3',#1124,.T.);
#1126= IFCCARTESIANPOINT((-2000.,12000.));
#1127= IFCCARTESIANPOINT((11000.,12000.));
#1128= IFCPOLYLINE((#1126,#1127));
#1129= IFCGRIDAXIS('4',#1128,.T.);
#1130= IFCGEOMETRICCURVESET((#1100,#1104,#1108,#1112,#1116,#1120,#1124,#1128));
#1131= IFCSHAPEREPRESENTATION(#14,'FootPrint','GeometricCurveSet',(#1130));
#1132= IFCPRODUCTDEFINITIONSHAPE($,$,(#1131));
#1133= IFCLOCALPLACEMENT(#29,#10);
#1134= IFCGRID('1eNWFy0000T34tDJ0vEJ4u',#5,'+0',$,$,#1133,#1132,(#1101,#1105,#1109,#1113),(#1117,#1121,#1125,#1129),$);
#1135= IFCGRIDAXIS('A',#1100,.T.);
#1136= IFCGRIDAXIS('B',#1104,.T.);
#1137= IFCGRIDAXIS('C',#1108,.T.);
#1138= IFCGRIDAXIS('D',#1112,.T.);
#1139= IFCGRIDAXIS('1',#1116,.T.);
#1140= IFCGRIDAXIS('2',#1120,.T.);
#1141= IFCGRIDAXIS('3',#1124,.T.);
#1142= IFCGRIDAXIS('4',#1128,.T.);
#1143= IFCGEOMETRICCURVESET((#1100,#1104,#1108,#1112,#1116,#1120,#1124,#1128));
#1144= IFCSHAPEREPRESENTATION(#14,'FootPrint','GeometricCurveSet',(#1143));
#1145= IFCPRODUCTDEFINITIONSHAPE($,$,(#1144));
#1146= IFCCARTESIANPOINT((0.,0.,3000.));
#1147= IFCAXIS2PLACEMENT3D(#1146,#9,#7);
#1148= IFCLOCALPLACEMENT(#29,#1147);
#1149= IFCGRID('1eNWFy0000Sp4tDJ0vEJ4u',#5,'3000.00',$,$,#1148,#1145,(#1135,#1136,#1137,#1138),(#1139,#1140,#1141,#1142),$);
#1150= IFCGRIDAXIS('A',#1100,.T.);
#1151= IFCGRIDAXIS('B',#1104,.T.);
#1152= IFCGRIDAXIS('C',#1108,.T.);
#1153= IFCGRIDAXIS('D',#1112,.T.);
#1154= IFCGRIDAXIS('1',#1116,.T.);
#1155= IFCGRIDAXIS('2',#1120,.T.);
#1156= IFCGRIDAXIS('3',#1124,.T.);
#1157= IFCGRIDAXIS('4',#1128,.T.);
#1158= IFCGEOMETRICCURVESET((#1100,#1104,#1108,#1112,#1116,#1120,#1124,#1128));
#1159= IFCSHAPEREPRESENTATION(#14,'FootPrint','GeometricCurveSet',(#1158));
#1160= IFCPRODUCTDEFINITIONSHAPE($,$,(#1159));
#1161= IFCCARTESIANPOINT((0.,0.,4000.));
#1162= IFCAXIS2PLACEMENT3D(#1161,#9,#7);
#1163= IFCLOCALPLACEMENT(#29,#1162);
#1164= IFCGRID('1eNWFy0000SZ4tDJ0vEJ4u',#5,'4000.00',$,$,#1163,#1160,(#1150,#1151,#1152,#1153),(#1154,#1155,#1156,#1157),$);
#1165= IFCRELAGGREGATES('3KPSZVezT2xe1w_1crs26p',#5,$,$,#25,(#27));
#1166= IFCRELAGGREGATES('3$Vmiopd1B_PQDXVIiAZ0g',#5,$,$,#27,(#30));
#1167= IFCRELAGGREGATES('075XoQKiX56PMjqK$xEtF5',#5,$,$,#30,(#32));
#1168= IFCRELCONTAINEDINSPATIALSTRUCTURE('1GwoZhVuD26Rc6cr0S$tuT',#5,$,$,(#1164,#1149,#1134),#30);
#1169= IFCRELCONTAINEDINSPATIALSTRUCTURE('0CarWKVUv0$xSQX8Hs_99C',#5,$,$,(#1078,#1040,#1031,#1022,#1013,#1004,#995,#986,#966,#913,#857,#798,#739,#680,#624,#577,#556,#491,#416,#352,#279,#226,#164,#93),#32);
#1170= IFCRELDEFINESBYPROPERTIES('1M$TMM$h93PwAto4eS_rFo',#5,$,$,(#93),#101);
#1171= IFCRELDEFINESBYPROPERTIES('1ING2bRUH5N8kH3jUePszE',#5,$,$,(#93),#110);
#1172= IFCRELDEFINESBYPROPERTIES('2gM_cR3lfFOAe4P93V4$bM',#5,$,$,(#416,#352,#93),#113);
#1173= IFCRELDEFINESBYPROPERTIES('3SgPcv0Bv8afsgh_C482Bf',#5,$,$,(#93),#118);
#1174= IFCRELDEFINESBYPROPERTIES('0JKEjn9ez068UPmMFyGlfv',#5,$,$,(#164),#169);
#1175= IFCRELDEFINESBYPROPERTIES('33dSOTWsj9lARHHhjB$sHD',#5,$,$,(#164),#178);
#1176= IFCRELDEFINESBYPROPERTIES('0VqMVJ_ObBhOB$BwyiZWG8',#5,$,$,(#1040,#1031,#1022,#1013,#1004,#995,#986,#966,#279,#226,#164),#180);
#1177= IFCRELDEFINESBYPROPERTIES('1vtUGjzvvArO5RNok$JNfU',#5,$,$,(#164),#185);
#1178= IFCRELDEFINESBYPROPERTIES('2tM531dhHBERdHxnO5$Mzu',#5,$,$,(#226),#230);
#1179= IFCRELDEFINESBYPROPERTIES('3hinR5RkP2cOa$0j6br4vy',#5,$,$,(#226),#239);
#1180= IFCRELDEFINESBYPROPERTIES('1Z4Bed1cr6ngd1FOFrYmFD',#5,$,$,(#226),#244);
#1181= IFCRELDEFINESBYPROPERTIES('0XeN3RAAXFheeu8hxCoCDm',#5,$,$,(#279),#283);
#1182= IFCRELDEFINESBYPROPERTIES('0z1w5M_HrD5gqXIInB8btJ',#5,$,$,(#279),#292);
#1183= IFCRELDEFINESBYPROPERTIES('1Sr$vilPvBJgOsjdQ2cIXn',#5,$,$,(#279),#297);
#1184= IFCRELDEFINESBYPROPERTIES('1xLtETonTDV9Q$VfvtN9U3',#5,$,$,(#352),#356);
#1185= IFCRELDEFINESBYPROPERTIES('1KXIgCWOP1RgYFtvqpPtHh',#5,$,$,(#352),#365);
#1186= IFCRELDEFINESBYPROPERTIES('3ErTRdpDbEmBhEfebegpoe',#5,$,$,(#352),#370);
#1187= IFCRELDEFINESBYPROPERTIES('18331PkOn9aOhwoObedApG',#5,$,$,(#416),#419);
#1188= IFCRELDEFINESBYPROPERTIES('1fR$2tTKn9pO4IJhgw9_G6',#5,$,$,(#416),#423);
#1189= IFCRELDEFINESBYPROPERTIES('1LVv7SEKL6RQP$x7dh94sr',#5,$,$,(#416),#428);
#1190= IFCRELDEFINESBYPROPERTIES('2ghfkipZTCmxonXqI22mQw',#5,$,$,(#577,#491),#496);
#1191= IFCRELDEFINESBYPROPERTIES('07Kyih84L0FR1Uqn73MHfg',#5,$,$,(#577,#491),#503);
#1192= IFCRELDEFINESBYPROPERTIES('3MhNc1IpXF3gvrG9BnHVUA',#5,$,$,(#857,#798,#739,#680,#624,#577,#556,#491),#504);
#1193= IFCRELDEFINESBYPROPERTIES('2U2boqe0vE1ubj1per0vJw',#5,$,$,(#577,#491),#509);
#1194= IFCRELDEFINESBYPROPERTIES('1u1u7tsWPFwuCQFi6plMO_',#5,$,$,(#556),#558);
#1195= IFCRELDEFINESBYPROPERTIES('3k0iR9NA59GOuJ4FyUjM6U',#5,$,$,(#556),#561);
#1196= IFCRELDEFINESBYPROPERTIES('0Z79ojYAb1iRpVIi8mFej4',#5,$,$,(#556),#566);
#1197= IFCRELDEFINESBYPROPERTIES('1Ge_l2bS1DJezQAIBOdvCC',#5,$,$,(#624),#626);
#1198= IFCRELDEFINESBYPROPERTIES('1cSkXWXHD6RPT1r_Y6SLvY',#5,$,$,(#624),#628);
#1199= IFCRELDEFINESBYPROPERTIES('1KBggkSOrFsRsOZGeFTYHO',#5,$,$,(#624),#633);
#1200= IFCRELDEFINESBYPROPERTIES('2nOBPya9zE_9XaF8Nsz739',#5,$,$,(#680),#683);
#1201= IFCRELDEFINESBYPROPERTIES('20Aw6oQPn9z9_OpzYD4ga_',#5,$,$,(#680),#687);
#1202= IFCRELDEFINESBYPROPERTIES('2MW6bEHXv9hggGKsLMbG_k',#5,$,$,(#680),#692);
#1203= IFCRELDEFINESBYPROPERTIES('3DE2mYXK53dBnD0fJfExRW',#5,$,$,(#739),#742);
#1204= IFCRELDEFINESBYPROPERTIES('3Aj76Qe$LEpw9z3Hrro$uI',#5,$,$,(#739),#746);
#1205= IFCRELDEFINESBYPROPERTIES('2uKL_tfwjBI81v3iVLbYP8',#5,$,$,(#739),#751);
#1206= IFCRELDEFINESBYPROPERTIES('0CXF9_ACfC6g4Ou6ITa_Ys',#5,$,$,(#798),#801);
#1207= IFCRELDEFINESBYPROPERTIES('3CCUwb_Kn8zuyt7xk35XCI',#5,$,$,(#798),#805);
#1208= IFCRELDEFINESBYPROPERTIES('0gFaCSFyHCFRGwyUZLoI7C',#5,$,$,(#798),#810);
#1209= IFCRELDEFINESBYPROPERTIES('2Q7SM8TDT2VAz1y9LM0ANK',#5,$,$,(#857),#860);
#1210= IFCRELDEFINESBYPROPERTIES('1ZEMJDaqP0YuO_letn$_80',#5,$,$,(#857),#863);
#1211= IFCRELDEFINESBYPROPERTIES('1XldLj11P5jPGLqVE5RTk6',#5,$,$,(#857),#868);
#1212= IFCRELDEFINESBYPROPERTIES('01GHJqLNf8bhVQ$rxp8gz9',#5,$,$,(#913),#918);
#1213= IFCRELDEFINESBYPROPERTIES('3eR4XhxX17w91j8ujC0kLO',#5,$,$,(#913),#925);
#1214= IFCRELDEFINESBYPROPERTIES('2CGz_FIc96TAKkPpXuByGe',#5,$,$,(#913),#926);
#1215= IFCRELDEFINESBYPROPERTIES('0EbhJ2Aof6v9zbJqgA7AH0',#5,$,$,(#913),#933);
#1216= IFCRELDEFINESBYPROPERTIES('1cIRYvZqP4WhW5BI45LCO2',#5,$,$,(#966),#970);
#1217= IFCRELDEFINESBYPROPERTIES('3FO60LlJf4GRqFgllrOeGJ',#5,$,$,(#1040,#1031,#1022,#1013,#1004,#995,#986,#966),#976);
#1218= IFCRELDEFINESBYPROPERTIES('2d8jrQkIH3bgZQCaLIAcWW',#5,$,$,(#1040,#1031,#1022,#1013,#1004,#995,#986,#966),#980);
#1219= IFCRELDEFINESBYPROPERTIES('1GDCt1hqf1Le11THfilgOA',#5,$,$,(#986),#989);
#1220= IFCRELDEFINESBYPROPERTIES('3ilSn28751XfNmYuKFbuhy',#5,$,$,(#995),#998);
#1221= IFCRELDEFINESBYPROPERTIES('2O4RcLPYD3_8CzcbX2YZT8',#5,$,$,(#1004),#1007);
#1222= IFCRELDEFINESBYPROPERTIES('0JVj2jAUD7Iw65z1x6Tt49',#5,$,$,(#1013),#1016);
#1223= IFCRELDEFINESBYPROPERTIES('2u3hHStxP3uhnAXPoL1S7e',#5,$,$,(#1022),#1025);
#1224= IFCRELDEFINESBYPROPERTIES('2N1dyQ30PB7fdqLDmDFFDr',#5,$,$,(#1031),#1034);
#1225= IFCRELDEFINESBYPROPERTIES('327VxmrSXBlgfyr0LoYQs6',#5,$,$,(#1040),#1043);
#1226= IFCRELDEFINESBYPROPERTIES('2xCUE54_f2jPsWub5OXqcF',#5,$,$,(#1078),#1081);
#1227= IFCRELDEFINESBYPROPERTIES('3mcU_z0EXFgAx1WEDREUVC',#5,$,$,(#1078),#1090);
#1228= IFCRELDEFINESBYPROPERTIES('1kO_9YqCXA6wJ0iYW7RKI1',#5,$,$,(#1078),#1092);
#1229= IFCRELDEFINESBYPROPERTIES('10DO3uBFD2WwnnLOP14P0P',#5,$,$,(#1078),#1097);
#1230= IFCRELDEFINESBYTYPE('1t8BLqw3n4HgzS5vM40VrX',#5,$,$,(#416,#93),#94);
#1231= IFCRELDEFINESBYTYPE('1o$Bax73P93el2U_CSt2GD',#5,$,$,(#164),#165);
#1232= IFCRELDEFINESBYTYPE('2SyAzFXon3$h3sZDRXwwdJ',#5,$,$,(#226),#227);
#1233= IFCRELDEFINESBYTYPE('3YYN3bxAzCiA93D2Oe7hYM',#5,$,$,(#279),#280);
#1234= IFCRELDEFINESBYTYPE('34cCdQgT14mP6Ql10kK7Is',#5,$,$,(#352),#353);
#1235= IFCRELDEFINESBYTYPE('0ah63tYIP9tv6miKuUw1Rz',#5,$,$,(#857,#798,#739,#680,#624,#577,#556,#491),#492);
#1236= IFCRELDEFINESBYTYPE('0PDDbjVRn8HPvuMTXDn5mU',#5,$,$,(#913),#914);
#1237= IFCRELDEFINESBYTYPE('2YDfgXLX995Plbr0KyVQ7n',#5,$,$,(#1040,#1031,#1022,#1013,#1004,#995,#986,#966),#967);
#1238= IFCRELDEFINESBYTYPE('3tksJij4b5o96_vhL0swZQ',#5,$,$,(#1078),#1079);
#1239= IFCRELASSOCIATESMATERIAL('2z2EfQo1XF1BkPGefCRDPX',#5,$,$,(#913,#857,#798,#739,#680,#624,#577,#556,#491,#416,#352,#93),#119);
#1240= IFCRELASSOCIATESMATERIAL('2GywJYVbD0ogZWvrj00o8M',#5,$,$,(#1078,#1040,#1031,#1022,#1013,#1004,#995,#986,#966,#279,#226,#164),#186);
#1241= IFCPRESENTATIONLAYERASSIGNMENT('SB1',$,(#91,#414),$);
#1242= IFCPRESENTATIONLAYERASSIGNMENT('SLAB',$,(#162,#224),$);
#1243= IFCPRESENTATIONLAYERASSIGNMENT('Ground',$,(#277),$);
#1244= IFCPRESENTATIONLAYERASSIGNMENT('SB2',$,(#350),$);
#1245= IFCPRESENTATIONLAYERASSIGNMENT('S7',$,(#489),$);
#1246= IFCPRESENTATIONLAYERASSIGNMENT('S6',$,(#554),$);
#1247= IFCPRESENTATIONLAYERASSIGNMENT('S8',$,(#575),$);
#1248= IFCPRESENTATIONLAYERASSIGNMENT('S5',$,(#622),$);
#1249= IFCPRESENTATIONLAYERASSIGNMENT('S4',$,(#678),$);
#1250= IFCPRESENTATIONLAYERASSIGNMENT('S3',$,(#737),$);
#1251= IFCPRESENTATIONLAYERASSIGNMENT('S2',$,(#796),$);
#1252= IFCPRESENTATIONLAYERASSIGNMENT('S1',$,(#855),$);
#1253= IFCPRESENTATIONLAYERASSIGNMENT('2%Slope',$,(#911),$);
#1254= IFCPRESENTATIONLAYERASSIGNMENT('Unnamed',$,(#964,#984,#993,#1002,#1011,#1020,#1029,#1038,#1076),$);
#1255= IFCPRESENTATIONLAYERASSIGNMENT('Grid +0',$,(#1131),$);
#1256= IFCPRESENTATIONLAYERASSIGNMENT('Grid 3000.00',$,(#1144),$);
#1257= IFCPRESENTATIONLAYERASSIGNMENT('Grid 4000.00',$,(#1159),$);
ENDSEC;

END-ISO-10303-21;
